<mxfile host="65bd71144e">
    <diagram id="M79hGCTtGZ4HaPnU6vPr" name="Page-1">
        <mxGraphModel dx="965" dy="244" grid="1" gridSize="10" guides="1" tooltips="1" connect="1" arrows="1" fold="1" page="1" pageScale="1" pageWidth="1100" pageHeight="850" math="0" shadow="0">
            <root>
                <mxCell id="0"/>
                <mxCell id="1" parent="0"/>
                <mxCell id="12" value="" style="group" vertex="1" connectable="0" parent="1">
                    <mxGeometry x="183.3273545035081" y="109.92827264392378" width="130.63642845969406" height="49.15534479699417" as="geometry"/>
                </mxCell>
                <mxCell id="2" value="" style="shape=stencil(lVnLctw4DPyaubL4BMmzN/sfqYoTT63XTjnOJvn7NDNFegBJPevbWBYkPBqNBnVKd98ePn69P0X/7fXl+Z/7H+dPrw+n9NcpxvPTw/3L+RW/TunDKd19fn65//Ly/P3p0+Xvrx/HnePXv8//jSf8vNhlccUPq+h/Xa4E70L8c+Xvi8Hj+enKIHUnVRsUFzMxiC5GZRCjC8QgVpeCNmjTyX2D5EJXBim7LMTAu1yUQQ4up2OD0J3XLuXmpHCDrAxKcY0EDYOYlIEk1xo1EJ3WGpywoLMT7VJdid4vXLZZap66lLOLGhoNlSFpLdFJswaFpFWCzdJ4Awm6etc1NFqYadg3qK4XmyXmUm0TOatw3RWSpWGg3yDoB1IHOJB1lgoSTfqhFud1HTJiIHUAcoqBd6BpFXFRxwCwCKv0ph9ip2ktwVUddJSJrn3wyfR4uQRo3DAwJACmInV4S+Iy6LSnC2hGp7WI68wgz+ctaGTKS0irwRIAX0nQpdkWBc14Umm8IRkiy66yGNomS5WmdUsCt8AXZ11XpdFSxCUYdONSc5606FtOVtBgvk7fYA0SJQHxzmuXxnwgBqW6YEiA8xIcaAZ8yBJhDYQYmzVIpA55gfnKpUykA+aDaVEELWygREv3iCqRfgByLFq9E9bTYZbpCq2NGUQ7H3LhrFFsWjN4idQB2DQxwEkh4ANVNm8N6NgtVmAN+cPA16xIRBoqiQFz2mtxgtoL4SU0kGxYg7E3WjSYLPVZmaM3FO0SiKcStKJFbQOV2YOH3KqzhH5gNAMm7ZrIxiOIS6i0ofvR06yBmtWtcKmxBiobA5lwPOqHano687G70RqIqrA3vNvAz3ZZ8wHcSqAxsKmhgYUjsI6DFNFvgLhmWZJmmQ/yh2GpZqtbEQNjvton9V7RTCZ1gJavhlsjXZpgkA28O9etkA46BilzEB8JXW/UTKYNBN1addBQ9524BF5KOoZWaQwYH8aldgNL0fLSSDTbsrCEbYKu5A1pqdSVVq6MAWbbon1e2TcQiyWMXYZWoL8b8Alt0dEuug6pU3gPA7NwxNmD+wabHQhX2IYyTh10P4RGlTHWCzNFQ5hpOCQys7zSQpd1EPN2fyQRANxV5yhg+2V7IhSfBkbg2r6KZaVxbEHe0DYLDapAWalvgBEoBfRsYwCSIjOoO8sA02O9b9pHqLYPHqShg8Aax45m8ArTPzXOSb9v0OyIA/Exrd6L7Z/GhQAKYTaanua+fDQejOTr4hrTV32Om2XQ6ckjWMvIpb6uHKkfI72vSrPf02Jn3Mg0Yw2Z6FwGhdJ9qHYo9jjPUvYrN/f5VThIPkJ8yZ6btEhPBLwlDTQ5a4cttoVuJ95Oq7FV0ucbLTYOWdjsmXyy7r+x8dn2T5nOtrY5h+JnaSHZXSkGuivFzd4d+PHeODnTjSMUowPUhuZdIYiAIuk6Ak+nAgi3ZHM/3YiDVc+8KSFkjQbzdL2FnDfKFohgzxcLUXApo5Vq5VGkByuDhoyWp/XKzbbkWgaO7jf7v9zyx/hfKUMgXvPhYB3mHuXzfZ+U/ocBfrx9wfp8fny8fAC7/r/94oVLl69l6cNv);lineShape=1;" vertex="1" parent="12">
                    <mxGeometry y="2.4452424889461213" width="6.555876969678238" height="8.247740987812831" as="geometry"/>
                </mxCell>
                <mxCell id="3" value="" style="shape=stencil(nVrbbls3EPwavRK8X57T9D8CxKmNunbguG3y9x1WpqwdSqOmQB4U2WNyb7Oze84hffh2/+nr3SH6b68vz7/f/f3w+fX+kH45xPjwdH/38vCKT4f08ZA+fHl+ufvt5fnPp8/H/3/9NH9zfvrj+a/5F74fcbE6QOY//+Ptm+aK//ebX4+Ax4cnC8jDAFJxQQG6880AMk7I1wEpuGyvVAAYAtBdKQZQh4v9OiAPV+wJrTovADW5ECyguFauA1p0iQDeZeGlllyq1ujhUpKAbE/IxdUgr+StlxC4N0dfNrq4lG1qVNcEoMTlkxMAqSEA2buRGSAj7Tk18E1oMvlisl7CnxBuRfIlCyjBeWEDko/cWoOLwgYkX7L1UKsbAlCy69ZLqIcsIj0BVHE6vXN3zSZfqtJLObluAajpt/y9DADNbDYknUvJ0kxFlYtIp+EGBa7L5APPNVtAiHQTRgNANV2jrGnk5iASAECwRkYBdTa6CqMRODqhnKjtslv9MvEscMponEBUCdZoKtKeKy4OSTMprfo6XQkNQPWHza1I+CLqIaEeyK11hfJaekcLmIETV8IFmO7LqvLLgL5ufNaBVGog1bgD9ZW/lwGZybgHN0S2wifBBq4j0jcANnB93LySPWEkqTVgtLdxGNVVRZXdZct8oy9auBa4aAHBe+fFnUDfw1o9xqray4DCbIw7yQYRWc6MIq1GyVH2jeiiSCZwZbJ+7V2KDQCI7zsyXjFZWKlzAnipHXJmQGuuqxpFBdkroeSGqtHINswaFZFGhwr7CapGoRTCZoO4EgrC715SJyCX4hYHkRqo0bhHWindTfTNXFIngL5to0a2SpU4WGygHhQbl8KNelacYoGwcvO/FvVE1J9CxLyucLoUoi/6YkCPokhEKZk6s2sLkl0zuxWOroqXXLdOgkZTmdG5PaS4RsdrBpMgC0MCoK+qjTN4UhmcXSURKnV03ZRJ0LNA28eTsIJ4GYDutI1YSgaAH4bNIrSXIGzACcR6IJ0qsgjCZdgrYXBUiQ3GoLkSeaqadMlsAypBzfdQV5n6W9ULAcx4xElNiqVQmSYhNIKIdF2VcrI56WLm4p+pIlLbM8+jt1TFLm5QZidtcOLuCZ+p4kdpdWtB1C7FBQadEOR4NRXuNnmrQRr05rfJW40mbXD9o58qnYRErqQxoGvUUiZyQx9gTSUnBy/H0Nu8qoW6JMhZLSgABvNI5Tkk6819Hc0yGBzECXGLA4ZQJaxCWz456zwyWwsPcHMhJ+IAADH3VLAKUFnWzy2kqofIa1CcqaQbmh9LaE16MIGSddXHVfFJieGqqJ46+PdDlzJszpsWMBlAADA+EoklPYyBQ9O2+I1K8URuDO8D4DUGIJ4HiXQF2Fis60kJ6rZaG1BuaizBlFFo2otSVsGJhQLt10bxcqomzqSepJAM21p2bjPElQoLNygn5dXISrV42W1Pk+ApkfSWK/IMM4tZbbrZQUEvWMNOkbL2Y2OJFOXUht5ZrX7xa5lzTVFRaepZBDNbsF0n6LIpvFBOUr30wvPUkKp2ii26T5NqBE0y7+JC8bvfFNV8+iGKACMj2Yyk9iIpAKC15BQoIsoYe2lTCsZUD2TAJLTSQ+VHRdljo4oqNdi+LoCnVSVDce3LLXVCahw5uKErOXLSQ2dGd0V3fvHtGd2pqQ1zJ+mX94dxlwPHigryRQW68kSF1CtqBNsGZ/3AtPGTjxtPZBu3qKif6207UpR/VuXMi4U5/qh+E1wmgJd8ERLfKAz5YAXajEyG2FG7bfAPTfI3AHEbOW9caTbB8jNGw+m0f7nh1vkslbYROm6xcKLeSIz/8y7ALQA+vL968OXh8fH45sL5z/lVBXx1fM0hffwH);lineShape=1;" vertex="1" parent="12">
                    <mxGeometry x="68.857802501224" y="1.826944398226118" width="5.075093915747956" height="5.519507203923053" as="geometry"/>
                </mxCell>
                <mxCell id="4" value="" style="shape=stencil(lVjZctswDPwav2JIgODxnLb/kZk4jadpnHHS6+8L1aUiQtK2efMhiAR2sVjyIDcvD7fPxwOHl9fL+cvxx+nu9eEgHw7Mp6eH4+X0ap8O8vEgN/fny/Hz5fzt6e76/fl2enL69PX8fXrDz2ucMLU6RXH4df0lMhX588una8Dj6WkRwI1KGwMaaQIBmWoZAriSRBCgfgWp1BSukMYADaRohUoqQ0COfZObARKpxSGgBEoZBFQKeQyoVECVlIlHHIpSBivkQEXHHKysIIecfVm1UQBI50Y8ApcsB1DWXEhXwFUAXDaqsacGIp9VKTsucS/0ZkCKlEfgjL8NAdcopfeQzwJi8FWqDWwpEI9Ja4ErJCEdAwzpWiFbXdJZKaKeTn4FzaSoH6T316LjGqC32N9uhUQBqUbp3FxsKaGeZs9WK2sBOMRC0W2pwi2ZMEbxK6CyFqquSAYDIitl934mQTWitmIe4jZTHRNOChUjUXLvj/D9hdKoSNYbAbw/Gk9HzRNDHWAcs6+QZAoBZBxXoyRTxMPKtY5tCdHOiO01r1EGtLPWEYcCw8kgyfdaysSAdhbgWic1qqBK03QbNU+FAhAYU2mHtDH7r5JvB8iq/WeybCM9D45lc4ItRelFXKyggKwm26sUGho93eQsaiRokJCMzWMKCTW4T/sFylCCqbjmNMzQnOqsXD4P9j9tt/gABRgbQE18hRgE5NTVbR5T0o3cnoOJzoUpBRQQut72gKqdiNuKZ501rtAY5mA0chLWAhQYM8sy4lANB7DCRGyXdKKCVDV4Ztj0R2U1MzymYKMZy7wfO9zd8U6n6fg8zx5rO4HkW810H8615EuUe/PtOTDXa4YZ0BZThirueTR1zJ45AbYCAQDsaJAcTeEYrNVbHSsQSqAl3zgmZwJI12on8TzVtPN2h3RzSRbmQkFEaz3HpQAjwdZuehe8riCJ2rzfKTOQ2wHBa6TJBRr+BrTvfoHHQkvR60vtJmvvHOkOz4tKbzdD6OowL/EPvYjEI3K1wMmWPA4F+5FIcayqyTza0IpJGqF+hdUBjCkhRfXPmyWLcNI6kHlupx09lRFjEzRGrpb74J4L2q8n9iYCO+sCLy9seXfFk7D3Kn5qYqdjIy2P+5lP6XsnNWeNGJ/sbP/Fvx91QPHXQdiHTDda7OrDyEnFlRWkDN4v7MdHwe9fnfcbdnbSjeKbRkCX8+47v/8IsA9vV4z3p8fH6w3l8n9/JWk/Xa8z5eNv);lineShape=1;" vertex="1" parent="12">
                    <mxGeometry x="123.622294563747" width="4.332021184114025" height="6.231762081665965" as="geometry"/>
                </mxCell>
                <mxCell id="5" value="" style="shape=stencil(nVnZUhtBDPwav6pmpDmfCfkPqoDgCsEUkOvvo40z9krjbai8GeO2rlZLWu/k6vXh5vlux+H17eXw9e7n/vbtYSefdsz7p4e7l/2bvtrJ9U6u7g8vd19eDt+fbo9/P98sn1xefTv8WL7h1xHHlUpfUBx+H9/JmUL8+87nI+Bx/2QBvVlApx4AoFEOBlAKcd4GSKBeDKAmCmUbkKK3UDtVEENmH3QTim0bUPTf1kLL0EINlLN1qVIDMWiIYl0qlZIAQCZOFhApMAbYGHIiRhYSJVuHVEcaLgOEgrWQAiXkUqRYDUASRUANzck/bg4AC9UOAEzZZikWChVwqRFXDygJsLX5fmDlL4iBtV2sS1woA5eWFhWbJaaOWrRRaL4ODdRBtA7WJU2DgEpLHQ6cuCSDv5fT2ik71ciUUIt2YraASA0AVFSKdSkVKGRKPrH0lg4B6pJYC1p71HEadHMuYZlRj6NLayAGLqVM4rKEZYYTdSf3BYqAcrM4CwK5pPTOlq1L4RD5ZOjcKugEYlDyNRvDkmg0H9gLmVpAQqZ1KNnHgHRJvy+4GHg4uTWB2FnI2IKMEbiqdMEW/EAJY2JsxeDofRbPy1mqPuiiQwwBeCwKJ0DGlVYVyh5QQQMpl9oEYKStyhyrSzrqOwKUQbVVlgIImnWdch3XB7u2WrTaCaSVDiBotdBdiybKgBo6H5KVeyUL2jV03gTHVh0oCFBIbAzaoiitadr5FgCwsCjfpBpoI9PvC+yDhv0QqRSfVkEtymPur7QVZUkBdVql4VC8CABCFtvg5mpJLIBLsU5ZSlDI1EJyO1/FA4VHTlZTFA1FJV+0AMYHRzpteKslEc0H7WDX0xwpAZfqvPMJXB169Lv3stQB8vVJ+XQzLiCG3inawqnaQoCM1Xw145Dct+qXddUluN13Tw1NNBKB0gY3T4A2bG71g5P7iue0Uq3ZoPVQS0iMi5dKPUEqoHfUMk1Bo5FVfDtkvLayF3sVNhTBdIjqtYyaIfgbTomHNCl6HVZmo+GTvEiqxQb8XxJq52eUIQhb4zC7GsOAF064COChsYw+69ApZZcLnMeFev488r/WSVFJAIFa8uoVI7wnW/crvXqEjugu3oIejB241LOf5ppkKEZ1YnUZy+WW3IlbYbDGxzARW0ch6mQ1kd0C3eHCoJrttqRaqAKB7Mnvw03GEbtVahd1T/DsLnXiRsBszdOt1E8H3ebmZttnqT5aiLvX4M5jOl4GaL9Yl1rFOwkP/p8AqsHo4ds0RtJokY3PR8cM/ESzjs30g49Mm6fqO89kG7E7MQTeht1vVEvVQcliGOvQaldAl16cz1s8Z1XlZdr/0e68PJWbABnULHZ/rb4D4Oib7R2XdAf0ZxV+kKGTiqcVDKX1/KDwg4VT5qXpOR1ixv/8HPAeQF+cf3243z8+Hn+8WP/f/1qhbx1/6ZDrPw==);lineShape=1;" vertex="1" parent="12">
                    <mxGeometry x="73.23165594174225" y="40.568745348643915" width="4.828080097979933" height="8.58659944835025" as="geometry"/>
                </mxCell>
                <mxCell id="6" value="" style="shape=stencil(lVjLbhsxDPwaXwmRep/T9D8CxGmMunbgJH38fbl1pa4o7wS9OeuMqSE5Q2p3/u71+eFlvxP3+nY5f93/ODy+Pe/8p53I4fS8vxze9NPO3+/83dP5sv9yOb+fHq9/vzws/7l8+nb+vvzCzysuVkq8oMT9uj6RRKn8efL5CjgeTmuAo5gGgGdiAPCFahwBlUoFgEA8Rgj9kLcBYjkkppAAIJIPAyAz1bANCIl45JArBQFZqiQyAoQqyFLylILlwIB0ihRGgB4ScUiBXB7r4ElAlpIjN3IQTbSDpN3UGuhIMVMcIwSmCEgvgLHSkRurrSP5kbQ++duOtwGaEzcChCLSQyHvRw4BcwhU2AIc6KVQmiA7wJMDAtKvQ7RpZaQ41ZdpjULRA0CmPJJeJAXqoIBiAAILp0eq45GkwMIp6ToZmUeA2rq/A7RwqFsnxYmnjCTKttIKgBLVtI7NJ5EERFBTiQaQyYNK52gjeEcCspSTrYO6RgQmoAAeu9UnykBAWbt1zJLWPoMjpdKS2NtbiIGA1FvF6EHdFrm3kp40zcj5HKUpAjKBEK1VqkQrMgFHOdgsBTx2zcjSOsChqN46VZoRQO3e6AF7q5YpmIGSidHY1WY2Eo0t5pZ7GzNWxRU8H/Ik0Ywi1EmiGFDTZPcOplUBpg6hQNcovRHWMw4BnOWQsGuo4sxGlvuI2fLWWkdAgnpQF0omgrT+vQkQR9VwcFQAaZ4Gioq2AtIawY8cQl99bwOkjY+VHjKKECiZbmXYS/p7ZrCzQKtUTRtfUv8HFHS/8qNCdQdEZq9j3awm0InLtI6xh4Ku0e4+GgExrjrVzfip0Lprv4x0CpkcMFZ2PSc9qRHeT2qyA0uvG2jTKNM+ViK8buhYN6w1JjIZXWrN0F3R2rqVmdW7arMA1qzePpKoH6walkPBvSGtrj2rAY6fqWx6hSogR65ddtZlRkvx5NsRLj7aqWaid+e/ndDS3GQ1Pgs6kO6fZlY5vJWwlT8nEnCkZekej8S9E7cmutkZODTn39qspFpAwCtAjFMEvOwZF1444GuujzZLaFbpPcAeKVMAEXRhZaPOAl+ZKMAsrEul0U3Dt7cRq7u9gF5aduh5s0JH4ubTq90Nkf7/N1EfA/TDvxdfT4fj8frebP29fVGmj64v2fz9bw==);lineShape=1;" vertex="1" parent="12">
                    <mxGeometry x="126.97763019243405" y="41.1050908494644" width="3.55498487445679" height="6.865149505220233" as="geometry"/>
                </mxCell>
                <mxCell id="7" value="" style="shape=stencil(lVnZUhtBDPwav6rmPp5J8h9UYYIrBFOGXH+fnpg1HmndxG9gq9czUqt17CbevDzcPm83wb28Hvbftr92d68Pm/hpE8Lu6WF72L3ir038vIk39/vD9uth/+Pp7vj/8+2wHH993/8cT/h9xHkJeYCC+3P8IIlr/z74cjR/3D2dmUdJTZnXfNk8S/WTeZZAnt6kuck8Lh+smnsnqSv7SB7vg7gy2QdpldhHyV3Z0+cXibMz4d1E7JuU+TxOHLkvvu5BPz8S+yg+K/+kQuwRnarC9faD6/ZVwhyvJonZN+lR2RdiH51mWxNP/BOD+Pn8XTqzj1Ln84Ahb4xaB2SdLT7TCMQqTgEaB8BFCtDpnZMXnzQgMwA4UDWgkRxOWdrMOvDQE1onRMlrQCRHyohz0gBG1By0UABQyJFyFmd+gQJAbXPpzI7UJRRzaSIuxUs0XgokG0rU6jLkgrC1ZJ2eI9KeAIq0rgEsDgVsVVxqVLGr0wUBAMalioRUKVolEw2uaakwZwBP6F2LLiKQ8U7cWps4pcJJGjtS1zLvPdXV5qXOR+InalHbo26SsLUsWdeFyM5TNbejOCJiDbSYYxCWA67ad+SirrMsxj0sCvduz2jakySv7cl9+6nMnNV9QiHYK1YnKSTPejdlBCrOLgAGzXmGys8UFQBVaVHrGIW8O7UepztUymr8RJvPBEXLhBUAKNZV9FfcTU6V/0A1GHHIcxzA3MqOVLXggbqJXboubj8B0AAT/epFpyb0hvUkAKRZXSDjldQRAFSlQnWkcTAANB2Z0dscCX0hZZ+5NBTSX+VWdNLMqyZuQQo7kCEGBI/nm2aeZHYeQ+1RpZjimeRBq8qovZafkbYLVgLQ03iebkpkSueybWQMla4zNxmdbIWnmxFi5CdNt6sBSC4DKOzSccnGcwDjktehHgBGVnTXQQMSucP42tyBDRnwuqq30MlONAYi1w2gEi6hI4nRAFgL4/VUAr+xVcGgmgKkpVW81LapxrDzHF1pDB2fz23vOfL8qu4WgET8avtnMJ4Nb7ZDHynChgYzAww3Eb/aKQMAJvZ2jum8JNpJaRQYQlc7iwHAFg122hs1j1zazpO90BbRTqwfAcxMDACLg526e6FKZud6AOgiwGwORqSJW+1uAgBG77H9MFxinX00ncZwK6FGTHq/gmGC7ojCilay4WEsrZTe4xfIpcfW07S5bLwa0+BM7+aWxd2lvZ7aQkHbIjtS0F6CUrGGKUCX5iNBeBJbrZrVJ3SEqYbdrUJHWLNhl7cl0O2H3Q4DwLxk189QKrb9MOvtoWzkznZ7/sE+U69Li6MqZnb/OA/bNTrNisJ553SMobOsHDo9pue49LAX7IMauxttMlC958xMYen+Ltmr1xGFJqaxR1PPVk/mPGMvQfhg7juSgt5X+dOfIv5/8aq0RBk6JKpzV75p+tAcf7y/1LrfPT4e34mdf69fguGj4wu0+Pkv);lineShape=1;" vertex="1" parent="12">
                    <mxGeometry x="14.208071225014464" y="6.1758815945424885" width="48.77056735800579" height="2.1484362724058683" as="geometry"/>
                </mxCell>
                <mxCell id="8" value="" style="shape=stencil(rVjLbhsxDPwaXwlRL1LnNP2PAHEao2kcJOnr78utIWdFeScp0Ju95nhFcUgOuUtXL/c3T/tdDC+vz8ev+5+H29f7Xfq0i/HweL9/Przap1263qWru+Pz/svz8fvj7en7081iuXz6dvyx/MOvE44plQUUw+/Tg9Ko5r9PPp/sHw6PK/tMqY72kUrdtleKbbDPmSqw50DZASKlBACRZDxRDlQRoFAIAyA1kgIAQiweEAUAGiX1gMDbAItCHX1ISi0AQKLGHqDoDZU4eEBtAGCBKx6AAp0CpewBGfiQIuXJ6agAkKkkD2AQOPvZkTsJSQTkZlLxgIgAxiUX6QrpnWV6Q6UAACV09p8Bpd/bZYBdq3tDJgWRLqUfYAVgELgilB35EmWQcVZSxFEjkgIfaqQgHpAANWruVDsDmBp6QyVJHlBBAlX1gYuNFJBPmMpYyCwHE4iDpM7NMyDCuiT2f6PTrNBpMR9GtnKlDK5V2Ueacy8LlwHmw+i0lecAuKRWl8Y4GFdAGNRSejyRUAKluE39LfdLu2yf/BUlqsDhVqmNtAiwfTYrQOrsIzqPFV1Hu37Ay/bWmcZUU0g6s3ekM0ow4JAB2uhALDA1F4DL5dKze/NII61NMqAivPg8AgrDirdc6ui0lTRE6yVq460uJQ3dktEieQAjXlSvMawsZ3RLpXfj8y21nkpbAB59MJ0kKHDZR9pKJMyd4qv2omuwD9mRL3ZdswVoY3mxB/hWxdUvWO8szmW0D7B6takaMez+xtQw0qJCxWP2xRXshMudJdvUQyK4UQ5hUsMM+5q9QsdX5Hdo0XoFWjEVKUm7VZlyAWabdnW9yrb4XwGJeHS62hPE1ODrvAEKaoTqS0wtXaJsdU6nhqvCIUNN1Y1xkNCb41b3d81cIjySND/sSaGIAJV0dFqkE/gyIPuZYTkkyCA7cRiPpAULw+YFgzY4ZMxK0mJfgQ+zVjUAIt+shhVLz1lvGwCVjVnRGx0VjQDTzGAABk7PU4lKnxc/OPcY4QX4ME9Weu6pH5zdtMC6NE+HBkAZN8+floMFAaYJ1wABjcTTDG0KvKGReJrSDaAgRec9gAEqONK8aTAAutZllxE9IAMf3lTFGgDYys1nnAGQZmXpTXMNQCuimUvvHCn2KrQCIHpz8Gsuo0YDIle9sLd0yChDKYxxttEJRsFXgIa7Ovc56ixlAhZX7CeZReeDA4W+UjjbS99Vbti7XDPBm0FFCn3nt67z8Dy+81Q4xkxC7G363rJ3k3Dtq9MNeydhhOF6YSrAVeBEEvr+ZKV40A4z+AyoDMXCv26q37e3D29r8bvDw8Npq77+3a/R7dFpBZ+u/wA=);lineShape=1;" vertex="1" parent="12">
                    <mxGeometry x="80.43022290191152" y="3.0884359002590998" width="35.84635357148265" height="3.0104768233714503" as="geometry"/>
                </mxCell>
                <mxCell id="9" value="" style="shape=stencil(lVjbUhsxDP2avGpsy/LlmdL/YIZQMqWECent76tt8LLSbg7D2xJ0rPuR7B3fvD7evex3KbyeT8fv+9+H+/Pjjr/sUjo8P+5Ph7N+7fh2xzcPx9P+2+n48/n+8vfL3SQ5ff04/ppO+HPBpUY5T6gU/r79Qhz///D1Iv90eF7Kd2rJyBeK/bo8JwrRyHfiDOQztW7koxqEFDQKxQKERK4DciS2HsRGDZiUM0m1IUqUKgDUcd4MECrAJIkUxQIadQaA6qOqcUvlOqBEEraARhWEtQhlG6WcSEBhFA2iNSkLVRDWGqg2C+gUQFhrpGwzLQnWngKaTZwIRWSSnucAjVKAALHVWtKI2zYgU3XtIyNu24BK2Ya19GHkJqAFisEAKjapJarW6SrESIOWhq2l2kZLbQO0Wm2UVGdCgO57WnUWkOkeR23OAEwzZe6vmZaYAsq0eA09UQEa1EUXpQkASKCpSWVlEgD07FtUAW8ttQ3QYnYmZQiIIYygzAihDrzuncRSX6+w5Xqh7jSolchrHQcuTH2w53Zcy5gfC0AFXFk7FZvqRRyu0UDNXkVDdFxIggfAel3xt4ZJgElKXFx9IjLQoCOFnYYCE6EafKoF8rf60OyU0/ILgAY0SusmTYgseVi86LmKiCaM4lw2KQirFpMbKQpowOnJgFVXo8RN/VJ9lDLYBbRyivg8oAVIAd05XeCk1lLzO1wdXXuNmRx/6xENEE1rG/0ggPA/DdDdIjkfAqylvMq05j6jvTIPFxdTjoHTmX0eKiYB3VyrG7wFauAVG2uHMOAlruO8GRBgi7JQcgtQgcXHTMWWxgcbky62wZr0wU6mAF5vfcik7DdXCeOScw3gViwtFkGXmkjd7cYMe1ovSU4D4/LWC0a3UZoyg+5x0TPf+81uexeoXkMqkMiihtX6kHh4tQ2Inshih1tfo2L3n4jbQTwVR4a7Ca8oA1J99OuY8gWwfrVapeHOFfHkxVFjxrFgz76Oy9N2OVC3bRyoo9nvLyWBBI1ZYnHiaP2fCoGdfAB50gt/8OejdU3v+9mfH3GvuAeAMBzalte7eHPyaAuZCsXmVpsT1HGq/g1mHgzb8p994/lQXj/eH5QeDk9Pl/eo5f/9A5T+dHm84tt/);lineShape=1;" vertex="1" parent="12">
                    <mxGeometry x="126.34497332679007" y="9.883009452295369" width="4.291455132904008" height="24.76982329061157" as="geometry"/>
                </mxCell>
                <mxCell id="10" value="" style="shape=stencil(lVjZUhsxEPwav05JGp3PhPwHVUBwhQAF5Pr7tOLIWCNvE97sXfVqNEdPa3Z68XJ39XSzC+7l9fnx683P/fXr3U4/7ULYP9zdPO9f8Wunlzu9uH18vvny/Pj94frw/+mqr+y/vj3+6F/4dcC1Krl2VHC/D0+iSo5/n3w+AO73D6eALLnNgCKtEIBKTRMgRWmOALz0dyeA7KTWbUCt4nUGJFFiUo2SZ5NylUQOXWHSDChePNmhwCfzGUoUJTvgdTKAOvY8D/DjiAMAIz3xEo6ofgYgMo0AkgSzQ+KAYANXsygBpCZ+Afxzw3lAFu9mALykBBCkzendnCSSfMnZSCN/PYkDsj/PJjV4iZgUk7g4A7K0TABhlMsRUCSxHZw0bwFsB0UcjEmVBk6zlGYBjQGQ3nkGNBoHDaILoJFDq5M4H9o7J45sEUAbyxYsv0M6dwji16Di1AIYCwQQ3RLqTEzycLuJXKImeUTOAOBp4lcfLZOBn5lbfVhM4sTk3ZkdImPjpR78aGLneUlqsetZP4m2YcFFjlAAGGUuBnBzIM3BiZ/XgzgzXe/m84LVWFK4Ye2xQwdazU509j+KrxL/L0mKwmD+QTTn73vUGWH5YNu5L1JYIdt49aog31dJM1PgiTICtlUMrqH8a6kL/MrsjxLn/IxtEPjW9416QcRJ/kSbP/nI9xv+MfaUPJhyy/9GWICLabzcnP9QLpGcF0pn7uGliSP166TM/i/6Tn2p8U+SQuLrbAN/kyVb62f/QAIUWo9hXq9pMNjG+jzXVyi03sFOpn49FVF+dMWT+nKsi1l7sJ5JKLX+x46Jrjd8jvMyPj+7ntZLdMt6pnsXf9Zxv9joX0Ym4wnjW79o0oACYE0+WOUOwDtN3rSAwCkLMiLNNalo8qyG4RJDoomeATngzA511PV/ii3o4MgAi5wDgNXBKhhB7Owmu2rS3gmYTF5ULwCVKfdFV/czfEi5A1BJ4Na7QfSU3fvtw1kAa/dQJ4Zf8CSw/pdsQwOAXRtxR9NFEXl2MQVlB+sl1mKhyIxblU9FUrIqGfXAKm69KyP2jIVzWNpIpBWHrudNxekwcmui4M0OgV7q+tDEpPdRe25NRcLsVlAxM6mUMbw6AvAJPtlxhio9TY0aB6mcdDeW3rVYuQzyZPKlQb/McQCfs37VdLT7o6CipNHycMkxu7lBxxnLWO+GQt9ab0Yi/CLeZwdzDDzVp/0SPX8fipWErN/SzYWL6us+BjCjBJ4TfTRhbiBcEZ6MJk7STolm6FvMaYdDZJJ2/RCGYPx7AFM66BWML3oYlmbFdDYARjh3omeH/vBw+n0AfrzNwm/39/eHUfrpezs7x6PD3F0v/wA=);lineShape=1;" vertex="1" parent="12">
                    <mxGeometry x="84.39517443094542" y="44.64194072979609" width="41.24919296791934" height="2.8977743611538083" as="geometry"/>
                </mxCell>
                <mxCell id="11" value="" style="shape=stencil(nVjZbhsxDPwavxI6KfE5Tf8jQJzGaBoHjnv9fbk1ZJvUeoL2be3VrHgOR9rku/fnh7ftJoX342H/dftz93h83uRPm5R2r8/bw+6oT5t8v8l3T/vD9sth//318fT77WFZuTx92/9YvvDrhEuZSlhQKfw+/ROp9r9/fD6tf9m92vUiZn2nXMD6SsWuj5kCAjD1bgGdYgSATikbgNpYKwAINQcQigCQI2ULyIU4AIC6WC1AqGcAKNQsoBSqIEqZR5bOgA7zljuFaAA1UmcAEGK2ADUp3QaURGJNqh1GqTCVZACsgQYmqQHOBy6jGlcBnCna4uY+cr8O6CTFAJqaBMLamLLdoWkq221ADyTW6YYT1yt1u0NPlBBAxuszgCkAgGTfcfqJCMIqjbL1QRJMXAyBgnVCeFT8+haaiGYBDcZVqi9X/QQjJ4KvPhEqgGd6piYe0IFJWhvFMdklDuvlJ57Kli0QIFGfnEjA69p8+WmYUFfXSiH7RKB61SYtLnMM6biyr1fNZQXVxGECFJhq1vpnDwjApJanctXkgzxoV+fuAYyatE3VlyGVyTSn1YeKm5SnsBbAfUupWXbVxKGGUICbQbpnAUNLX/uw9uHVOkBpxY7FpbxRHnhIhSsA4pk2Eb4CUB50HtSJBQS1aFlp0YJaVCanOyQBbVEnHjTQAhKnLZqdDwx9+HdAmNg4UgQ9XZpnvt7H7F4HlCHZzoACma+EIXfOADUSaTINogW0BpWrqr5uTVIeEaSldY5aqmxKbUjqJmJbrdwgCSzS2e6wlCNwOhbvtI6YAExSNe+KT1Uf0pUKmHUlgxaNkzxR5SpgZMWpWlUbI/ZWQHBi+kOTogWoWhbkdKRknV4UP/BBac4mOgkUfW1019UZCI1EneqWlLRSEjoCUXTr86isdYcn0Trm3erySR7GUSQ3lqfmlidoTLJDIUDySr6iA1Xw9YnfwzgS3MiUEy8Bnm7jFJqA+3FShFhyxuqHeICHhcth/LI+gVRdXl9FE1Fc9AI1QMLSbLn7iAjPLv9x3/HBen24XK487V5eTncz1+/9ZYz+dbrIyfd/AA==);lineShape=1;" vertex="1" parent="12">
                    <mxGeometry x="72.52619633725283" y="10.327193441340171" width="3.816545381358715" height="27.40468955278748" as="geometry"/>
                </mxCell>
                <mxCell id="13" value="" style="group" vertex="1" connectable="0" parent="1">
                    <mxGeometry x="369.99735450350806" y="109.92827264392378" width="130.63642845969406" height="49.15534479699417" as="geometry"/>
                </mxCell>
                <mxCell id="14" value="" style="shape=stencil(lVnLctw4DPyaubL4BMmzN/sfqYoTT63XTjnOJvn7NDNFegBJPevbWBYkPBqNBnVKd98ePn69P0X/7fXl+Z/7H+dPrw+n9NcpxvPTw/3L+RW/TunDKd19fn65//Ly/P3p0+Xvrx/HnePXv8//jSf8vNhlccUPq+h/Xa4E70L8c+Xvi8Hj+enKIHUnVRsUFzMxiC5GZRCjC8QgVpeCNmjTyX2D5EJXBim7LMTAu1yUQQ4up2OD0J3XLuXmpHCDrAxKcY0EDYOYlIEk1xo1EJ3WGpywoLMT7VJdid4vXLZZap66lLOLGhoNlSFpLdFJswaFpFWCzdJ4Awm6etc1NFqYadg3qK4XmyXmUm0TOatw3RWSpWGg3yDoB1IHOJB1lgoSTfqhFud1HTJiIHUAcoqBd6BpFXFRxwCwCKv0ph9ip2ktwVUddJSJrn3wyfR4uQRo3DAwJACmInV4S+Iy6LSnC2hGp7WI68wgz+ctaGTKS0irwRIAX0nQpdkWBc14Umm8IRkiy66yGNomS5WmdUsCt8AXZ11XpdFSxCUYdONSc5606FtOVtBgvk7fYA0SJQHxzmuXxnwgBqW6YEiA8xIcaAZ8yBJhDYQYmzVIpA55gfnKpUykA+aDaVEELWygREv3iCqRfgByLFq9E9bTYZbpCq2NGUQ7H3LhrFFsWjN4idQB2DQxwEkh4ANVNm8N6NgtVmAN+cPA16xIRBoqiQFz2mtxgtoL4SU0kGxYg7E3WjSYLPVZmaM3FO0SiKcStKJFbQOV2YOH3KqzhH5gNAMm7ZrIxiOIS6i0ofvR06yBmtWtcKmxBiobA5lwPOqHano687G70RqIqrA3vNvAz3ZZ8wHcSqAxsKmhgYUjsI6DFNFvgLhmWZJmmQ/yh2GpZqtbEQNjvton9V7RTCZ1gJavhlsjXZpgkA28O9etkA46BilzEB8JXW/UTKYNBN1addBQ9524BF5KOoZWaQwYH8aldgNL0fLSSDTbsrCEbYKu5A1pqdSVVq6MAWbbon1e2TcQiyWMXYZWoL8b8Alt0dEuug6pU3gPA7NwxNmD+wabHQhX2IYyTh10P4RGlTHWCzNFQ5hpOCQys7zSQpd1EPN2fyQRANxV5yhg+2V7IhSfBkbg2r6KZaVxbEHe0DYLDapAWalvgBEoBfRsYwCSIjOoO8sA02O9b9pHqLYPHqShg8Aax45m8ArTPzXOSb9v0OyIA/Exrd6L7Z/GhQAKYTaanua+fDQejOTr4hrTV32Om2XQ6ckjWMvIpb6uHKkfI72vSrPf02Jn3Mg0Yw2Z6FwGhdJ9qHYo9jjPUvYrN/f5VThIPkJ8yZ6btEhPBLwlDTQ5a4cttoVuJ95Oq7FV0ucbLTYOWdjsmXyy7r+x8dn2T5nOtrY5h+JnaSHZXSkGuivFzd4d+PHeODnTjSMUowPUhuZdIYiAIuk6Ak+nAgi3ZHM/3YiDVc+8KSFkjQbzdL2FnDfKFohgzxcLUXApo5Vq5VGkByuDhoyWp/XKzbbkWgaO7jf7v9zyx/hfKUMgXvPhYB3mHuXzfZ+U/ocBfrx9wfp8fny8fAC7/r/94oVLl69l6cNv);lineShape=1;" vertex="1" parent="13">
                    <mxGeometry y="2.4452424889461213" width="6.555876969678238" height="8.247740987812831" as="geometry"/>
                </mxCell>
                <mxCell id="15" value="" style="shape=stencil(nVrbbls3EPwavRK8X57T9D8CxKmNunbguG3y9x1WpqwdSqOmQB4U2WNyb7Oze84hffh2/+nr3SH6b68vz7/f/f3w+fX+kH45xPjwdH/38vCKT4f08ZA+fHl+ufvt5fnPp8/H/3/9NH9zfvrj+a/5F74fcbE6QOY//+Ptm+aK//ebX4+Ax4cnC8jDAFJxQQG6880AMk7I1wEpuGyvVAAYAtBdKQZQh4v9OiAPV+wJrTovADW5ECyguFauA1p0iQDeZeGlllyq1ujhUpKAbE/IxdUgr+StlxC4N0dfNrq4lG1qVNcEoMTlkxMAqSEA2buRGSAj7Tk18E1oMvlisl7CnxBuRfIlCyjBeWEDko/cWoOLwgYkX7L1UKsbAlCy69ZLqIcsIj0BVHE6vXN3zSZfqtJLObluAajpt/y9DADNbDYknUvJ0kxFlYtIp+EGBa7L5APPNVtAiHQTRgNANV2jrGnk5iASAECwRkYBdTa6CqMRODqhnKjtslv9MvEscMponEBUCdZoKtKeKy4OSTMprfo6XQkNQPWHza1I+CLqIaEeyK11hfJaekcLmIETV8IFmO7LqvLLgL5ufNaBVGog1bgD9ZW/lwGZybgHN0S2wifBBq4j0jcANnB93LySPWEkqTVgtLdxGNVVRZXdZct8oy9auBa4aAHBe+fFnUDfw1o9xqray4DCbIw7yQYRWc6MIq1GyVH2jeiiSCZwZbJ+7V2KDQCI7zsyXjFZWKlzAnipHXJmQGuuqxpFBdkroeSGqtHINswaFZFGhwr7CapGoRTCZoO4EgrC715SJyCX4hYHkRqo0bhHWindTfTNXFIngL5to0a2SpU4WGygHhQbl8KNelacYoGwcvO/FvVE1J9CxLyucLoUoi/6YkCPokhEKZk6s2sLkl0zuxWOroqXXLdOgkZTmdG5PaS4RsdrBpMgC0MCoK+qjTN4UhmcXSURKnV03ZRJ0LNA28eTsIJ4GYDutI1YSgaAH4bNIrSXIGzACcR6IJ0qsgjCZdgrYXBUiQ3GoLkSeaqadMlsAypBzfdQV5n6W9ULAcx4xElNiqVQmSYhNIKIdF2VcrI56WLm4p+pIlLbM8+jt1TFLm5QZidtcOLuCZ+p4kdpdWtB1C7FBQadEOR4NRXuNnmrQRr05rfJW40mbXD9o58qnYRErqQxoGvUUiZyQx9gTSUnBy/H0Nu8qoW6JMhZLSgABvNI5Tkk6819Hc0yGBzECXGLA4ZQJaxCWz456zwyWwsPcHMhJ+IAADH3VLAKUFnWzy2kqofIa1CcqaQbmh9LaE16MIGSddXHVfFJieGqqJ46+PdDlzJszpsWMBlAADA+EoklPYyBQ9O2+I1K8URuDO8D4DUGIJ4HiXQF2Fis60kJ6rZaG1BuaizBlFFo2otSVsGJhQLt10bxcqomzqSepJAM21p2bjPElQoLNygn5dXISrV42W1Pk+ApkfSWK/IMM4tZbbrZQUEvWMNOkbL2Y2OJFOXUht5ZrX7xa5lzTVFRaepZBDNbsF0n6LIpvFBOUr30wvPUkKp2ii26T5NqBE0y7+JC8bvfFNV8+iGKACMj2Yyk9iIpAKC15BQoIsoYe2lTCsZUD2TAJLTSQ+VHRdljo4oqNdi+LoCnVSVDce3LLXVCahw5uKErOXLSQ2dGd0V3fvHtGd2pqQ1zJ+mX94dxlwPHigryRQW68kSF1CtqBNsGZ/3AtPGTjxtPZBu3qKif6207UpR/VuXMi4U5/qh+E1wmgJd8ERLfKAz5YAXajEyG2FG7bfAPTfI3AHEbOW9caTbB8jNGw+m0f7nh1vkslbYROm6xcKLeSIz/8y7ALQA+vL968OXh8fH45sL5z/lVBXx1fM0hffwH);lineShape=1;" vertex="1" parent="13">
                    <mxGeometry x="68.857802501224" y="1.826944398226118" width="5.075093915747956" height="5.519507203923053" as="geometry"/>
                </mxCell>
                <mxCell id="16" value="" style="shape=stencil(lVjZctswDPwav2JIgODxnLb/kZk4jadpnHHS6+8L1aUiQtK2efMhiAR2sVjyIDcvD7fPxwOHl9fL+cvxx+nu9eEgHw7Mp6eH4+X0ap8O8vEgN/fny/Hz5fzt6e76/fl2enL69PX8fXrDz2ucMLU6RXH4df0lMhX588una8Dj6WkRwI1KGwMaaQIBmWoZAriSRBCgfgWp1BSukMYADaRohUoqQ0COfZObARKpxSGgBEoZBFQKeQyoVECVlIlHHIpSBivkQEXHHKysIIecfVm1UQBI50Y8ApcsB1DWXEhXwFUAXDaqsacGIp9VKTsucS/0ZkCKlEfgjL8NAdcopfeQzwJi8FWqDWwpEI9Ja4ErJCEdAwzpWiFbXdJZKaKeTn4FzaSoH6T316LjGqC32N9uhUQBqUbp3FxsKaGeZs9WK2sBOMRC0W2pwi2ZMEbxK6CyFqquSAYDIitl934mQTWitmIe4jZTHRNOChUjUXLvj/D9hdKoSNYbAbw/Gk9HzRNDHWAcs6+QZAoBZBxXoyRTxMPKtY5tCdHOiO01r1EGtLPWEYcCw8kgyfdaysSAdhbgWic1qqBK03QbNU+FAhAYU2mHtDH7r5JvB8iq/WeybCM9D45lc4ItRelFXKyggKwm26sUGho93eQsaiRokJCMzWMKCTW4T/sFylCCqbjmNMzQnOqsXD4P9j9tt/gABRgbQE18hRgE5NTVbR5T0o3cnoOJzoUpBRQQut72gKqdiNuKZ501rtAY5mA0chLWAhQYM8sy4lANB7DCRGyXdKKCVDV4Ztj0R2U1MzymYKMZy7wfO9zd8U6n6fg8zx5rO4HkW810H8615EuUe/PtOTDXa4YZ0BZThirueTR1zJ45AbYCAQDsaJAcTeEYrNVbHSsQSqAl3zgmZwJI12on8TzVtPN2h3RzSRbmQkFEaz3HpQAjwdZuehe8riCJ2rzfKTOQ2wHBa6TJBRr+BrTvfoHHQkvR60vtJmvvHOkOz4tKbzdD6OowL/EPvYjEI3K1wMmWPA4F+5FIcayqyTza0IpJGqF+hdUBjCkhRfXPmyWLcNI6kHlupx09lRFjEzRGrpb74J4L2q8n9iYCO+sCLy9seXfFk7D3Kn5qYqdjIy2P+5lP6XsnNWeNGJ/sbP/Fvx91QPHXQdiHTDda7OrDyEnFlRWkDN4v7MdHwe9fnfcbdnbSjeKbRkCX8+47v/8IsA9vV4z3p8fH6w3l8n9/JWk/Xa8z5eNv);lineShape=1;" vertex="1" parent="13">
                    <mxGeometry x="123.622294563747" width="4.332021184114025" height="6.231762081665965" as="geometry"/>
                </mxCell>
                <mxCell id="17" value="" style="shape=stencil(nVnZUhtBDPwav6pmpDmfCfkPqoDgCsEUkOvvo40z9krjbai8GeO2rlZLWu/k6vXh5vlux+H17eXw9e7n/vbtYSefdsz7p4e7l/2bvtrJ9U6u7g8vd19eDt+fbo9/P98sn1xefTv8WL7h1xHHlUpfUBx+H9/JmUL8+87nI+Bx/2QBvVlApx4AoFEOBlAKcd4GSKBeDKAmCmUbkKK3UDtVEENmH3QTim0bUPTf1kLL0EINlLN1qVIDMWiIYl0qlZIAQCZOFhApMAbYGHIiRhYSJVuHVEcaLgOEgrWQAiXkUqRYDUASRUANzck/bg4AC9UOAEzZZikWChVwqRFXDygJsLX5fmDlL4iBtV2sS1woA5eWFhWbJaaOWrRRaL4ODdRBtA7WJU2DgEpLHQ6cuCSDv5fT2ik71ciUUIt2YraASA0AVFSKdSkVKGRKPrH0lg4B6pJYC1p71HEadHMuYZlRj6NLayAGLqVM4rKEZYYTdSf3BYqAcrM4CwK5pPTOlq1L4RD5ZOjcKugEYlDyNRvDkmg0H9gLmVpAQqZ1KNnHgHRJvy+4GHg4uTWB2FnI2IKMEbiqdMEW/EAJY2JsxeDofRbPy1mqPuiiQwwBeCwKJ0DGlVYVyh5QQQMpl9oEYKStyhyrSzrqOwKUQbVVlgIImnWdch3XB7u2WrTaCaSVDiBotdBdiybKgBo6H5KVeyUL2jV03gTHVh0oCFBIbAzaoiitadr5FgCwsCjfpBpoI9PvC+yDhv0QqRSfVkEtymPur7QVZUkBdVql4VC8CABCFtvg5mpJLIBLsU5ZSlDI1EJyO1/FA4VHTlZTFA1FJV+0AMYHRzpteKslEc0H7WDX0xwpAZfqvPMJXB169Lv3stQB8vVJ+XQzLiCG3inawqnaQoCM1Xw145Dct+qXddUluN13Tw1NNBKB0gY3T4A2bG71g5P7iue0Uq3ZoPVQS0iMi5dKPUEqoHfUMk1Bo5FVfDtkvLayF3sVNhTBdIjqtYyaIfgbTomHNCl6HVZmo+GTvEiqxQb8XxJq52eUIQhb4zC7GsOAF064COChsYw+69ApZZcLnMeFev488r/WSVFJAIFa8uoVI7wnW/crvXqEjugu3oIejB241LOf5ppkKEZ1YnUZy+WW3IlbYbDGxzARW0ch6mQ1kd0C3eHCoJrttqRaqAKB7Mnvw03GEbtVahd1T/DsLnXiRsBszdOt1E8H3ebmZttnqT5aiLvX4M5jOl4GaL9Yl1rFOwkP/p8AqsHo4ds0RtJokY3PR8cM/ESzjs30g49Mm6fqO89kG7E7MQTeht1vVEvVQcliGOvQaldAl16cz1s8Z1XlZdr/0e68PJWbABnULHZ/rb4D4Oib7R2XdAf0ZxV+kKGTiqcVDKX1/KDwg4VT5qXpOR1ixv/8HPAeQF+cf3243z8+Hn+8WP/f/1qhbx1/6ZDrPw==);lineShape=1;" vertex="1" parent="13">
                    <mxGeometry x="73.23165594174225" y="40.568745348643915" width="4.828080097979933" height="8.58659944835025" as="geometry"/>
                </mxCell>
                <mxCell id="18" value="" style="shape=stencil(lVjLbhsxDPwaXwmRep/T9D8CxGmMunbgJH38fbl1pa4o7wS9OeuMqSE5Q2p3/u71+eFlvxP3+nY5f93/ODy+Pe/8p53I4fS8vxze9NPO3+/83dP5sv9yOb+fHq9/vzws/7l8+nb+vvzCzysuVkq8oMT9uj6RRKn8efL5CjgeTmuAo5gGgGdiAPCFahwBlUoFgEA8Rgj9kLcBYjkkppAAIJIPAyAz1bANCIl45JArBQFZqiQyAoQqyFLylILlwIB0ihRGgB4ScUiBXB7r4ElAlpIjN3IQTbSDpN3UGuhIMVMcIwSmCEgvgLHSkRurrSP5kbQ++duOtwGaEzcChCLSQyHvRw4BcwhU2AIc6KVQmiA7wJMDAtKvQ7RpZaQ41ZdpjULRA0CmPJJeJAXqoIBiAAILp0eq45GkwMIp6ToZmUeA2rq/A7RwqFsnxYmnjCTKttIKgBLVtI7NJ5EERFBTiQaQyYNK52gjeEcCspSTrYO6RgQmoAAeu9UnykBAWbt1zJLWPoMjpdKS2NtbiIGA1FvF6EHdFrm3kp40zcj5HKUpAjKBEK1VqkQrMgFHOdgsBTx2zcjSOsChqN46VZoRQO3e6AF7q5YpmIGSidHY1WY2Eo0t5pZ7GzNWxRU8H/Ik0Ywi1EmiGFDTZPcOplUBpg6hQNcovRHWMw4BnOWQsGuo4sxGlvuI2fLWWkdAgnpQF0omgrT+vQkQR9VwcFQAaZ4Gioq2AtIawY8cQl99bwOkjY+VHjKKECiZbmXYS/p7ZrCzQKtUTRtfUv8HFHS/8qNCdQdEZq9j3awm0InLtI6xh4Ku0e4+GgExrjrVzfip0Lprv4x0CpkcMFZ2PSc9qRHeT2qyA0uvG2jTKNM+ViK8buhYN6w1JjIZXWrN0F3R2rqVmdW7arMA1qzePpKoH6walkPBvSGtrj2rAY6fqWx6hSogR65ddtZlRkvx5NsRLj7aqWaid+e/ndDS3GQ1Pgs6kO6fZlY5vJWwlT8nEnCkZekej8S9E7cmutkZODTn39qspFpAwCtAjFMEvOwZF1444GuujzZLaFbpPcAeKVMAEXRhZaPOAl+ZKMAsrEul0U3Dt7cRq7u9gF5aduh5s0JH4ubTq90Nkf7/N1EfA/TDvxdfT4fj8frebP29fVGmj64v2fz9bw==);lineShape=1;" vertex="1" parent="13">
                    <mxGeometry x="126.97763019243405" y="41.1050908494644" width="3.55498487445679" height="6.865149505220233" as="geometry"/>
                </mxCell>
                <mxCell id="19" value="" style="shape=stencil(lVnZUhtBDPwav6rmPp5J8h9UYYIrBFOGXH+fnpg1HmndxG9gq9czUqt17CbevDzcPm83wb28Hvbftr92d68Pm/hpE8Lu6WF72L3ir038vIk39/vD9uth/+Pp7vj/8+2wHH993/8cT/h9xHkJeYCC+3P8IIlr/z74cjR/3D2dmUdJTZnXfNk8S/WTeZZAnt6kuck8Lh+smnsnqSv7SB7vg7gy2QdpldhHyV3Z0+cXibMz4d1E7JuU+TxOHLkvvu5BPz8S+yg+K/+kQuwRnarC9faD6/ZVwhyvJonZN+lR2RdiH51mWxNP/BOD+Pn8XTqzj1Ln84Ahb4xaB2SdLT7TCMQqTgEaB8BFCtDpnZMXnzQgMwA4UDWgkRxOWdrMOvDQE1onRMlrQCRHyohz0gBG1By0UABQyJFyFmd+gQJAbXPpzI7UJRRzaSIuxUs0XgokG0rU6jLkgrC1ZJ2eI9KeAIq0rgEsDgVsVVxqVLGr0wUBAMalioRUKVolEw2uaakwZwBP6F2LLiKQ8U7cWps4pcJJGjtS1zLvPdXV5qXOR+InalHbo26SsLUsWdeFyM5TNbejOCJiDbSYYxCWA67ad+SirrMsxj0sCvduz2jakySv7cl9+6nMnNV9QiHYK1YnKSTPejdlBCrOLgAGzXmGys8UFQBVaVHrGIW8O7UepztUymr8RJvPBEXLhBUAKNZV9FfcTU6V/0A1GHHIcxzA3MqOVLXggbqJXboubj8B0AAT/epFpyb0hvUkAKRZXSDjldQRAFSlQnWkcTAANB2Z0dscCX0hZZ+5NBTSX+VWdNLMqyZuQQo7kCEGBI/nm2aeZHYeQ+1RpZjimeRBq8qovZafkbYLVgLQ03iebkpkSueybWQMla4zNxmdbIWnmxFi5CdNt6sBSC4DKOzSccnGcwDjktehHgBGVnTXQQMSucP42tyBDRnwuqq30MlONAYi1w2gEi6hI4nRAFgL4/VUAr+xVcGgmgKkpVW81LapxrDzHF1pDB2fz23vOfL8qu4WgET8avtnMJ4Nb7ZDHynChgYzAww3Eb/aKQMAJvZ2jum8JNpJaRQYQlc7iwHAFg122hs1j1zazpO90BbRTqwfAcxMDACLg526e6FKZud6AOgiwGwORqSJW+1uAgBG77H9MFxinX00ncZwK6FGTHq/gmGC7ojCilay4WEsrZTe4xfIpcfW07S5bLwa0+BM7+aWxd2lvZ7aQkHbIjtS0F6CUrGGKUCX5iNBeBJbrZrVJ3SEqYbdrUJHWLNhl7cl0O2H3Q4DwLxk189QKrb9MOvtoWzkznZ7/sE+U69Li6MqZnb/OA/bNTrNisJ553SMobOsHDo9pue49LAX7IMauxttMlC958xMYen+Ltmr1xGFJqaxR1PPVk/mPGMvQfhg7juSgt5X+dOfIv5/8aq0RBk6JKpzV75p+tAcf7y/1LrfPT4e34mdf69fguGj4wu0+Pkv);lineShape=1;" vertex="1" parent="13">
                    <mxGeometry x="14.208071225014464" y="6.1758815945424885" width="48.77056735800579" height="2.1484362724058683" as="geometry"/>
                </mxCell>
                <mxCell id="20" value="" style="shape=stencil(rVjLbhsxDPwaXwlRL1LnNP2PAHEao2kcJOnr78utIWdFeScp0Ju95nhFcUgOuUtXL/c3T/tdDC+vz8ev+5+H29f7Xfq0i/HweL9/Przap1263qWru+Pz/svz8fvj7en7081iuXz6dvyx/MOvE44plQUUw+/Tg9Ko5r9PPp/sHw6PK/tMqY72kUrdtleKbbDPmSqw50DZASKlBACRZDxRDlQRoFAIAyA1kgIAQiweEAUAGiX1gMDbAItCHX1ISi0AQKLGHqDoDZU4eEBtAGCBKx6AAp0CpewBGfiQIuXJ6agAkKkkD2AQOPvZkTsJSQTkZlLxgIgAxiUX6QrpnWV6Q6UAACV09p8Bpd/bZYBdq3tDJgWRLqUfYAVgELgilB35EmWQcVZSxFEjkgIfaqQgHpAANWruVDsDmBp6QyVJHlBBAlX1gYuNFJBPmMpYyCwHE4iDpM7NMyDCuiT2f6PTrNBpMR9GtnKlDK5V2Ueacy8LlwHmw+i0lecAuKRWl8Y4GFdAGNRSejyRUAKluE39LfdLu2yf/BUlqsDhVqmNtAiwfTYrQOrsIzqPFV1Hu37Ay/bWmcZUU0g6s3ekM0ow4JAB2uhALDA1F4DL5dKze/NII61NMqAivPg8AgrDirdc6ui0lTRE6yVq460uJQ3dktEieQAjXlSvMawsZ3RLpXfj8y21nkpbAB59MJ0kKHDZR9pKJMyd4qv2omuwD9mRL3ZdswVoY3mxB/hWxdUvWO8szmW0D7B6takaMez+xtQw0qJCxWP2xRXshMudJdvUQyK4UQ5hUsMM+5q9QsdX5Hdo0XoFWjEVKUm7VZlyAWabdnW9yrb4XwGJeHS62hPE1ODrvAEKaoTqS0wtXaJsdU6nhqvCIUNN1Y1xkNCb41b3d81cIjySND/sSaGIAJV0dFqkE/gyIPuZYTkkyCA7cRiPpAULw+YFgzY4ZMxK0mJfgQ+zVjUAIt+shhVLz1lvGwCVjVnRGx0VjQDTzGAABk7PU4lKnxc/OPcY4QX4ME9Weu6pH5zdtMC6NE+HBkAZN8+floMFAaYJ1wABjcTTDG0KvKGReJrSDaAgRec9gAEqONK8aTAAutZllxE9IAMf3lTFGgDYys1nnAGQZmXpTXMNQCuimUvvHCn2KrQCIHpz8Gsuo0YDIle9sLd0yChDKYxxttEJRsFXgIa7Ovc56ixlAhZX7CeZReeDA4W+UjjbS99Vbti7XDPBm0FFCn3nt67z8Dy+81Q4xkxC7G363rJ3k3Dtq9MNeydhhOF6YSrAVeBEEvr+ZKV40A4z+AyoDMXCv26q37e3D29r8bvDw8Npq77+3a/R7dFpBZ+u/wA=);lineShape=1;" vertex="1" parent="13">
                    <mxGeometry x="80.43022290191152" y="3.0884359002590998" width="35.84635357148265" height="3.0104768233714503" as="geometry"/>
                </mxCell>
                <mxCell id="21" value="" style="shape=stencil(lVjbUhsxDP2avGpsy/LlmdL/YIZQMqWECent76tt8LLSbg7D2xJ0rPuR7B3fvD7evex3KbyeT8fv+9+H+/Pjjr/sUjo8P+5Ph7N+7fh2xzcPx9P+2+n48/n+8vfL3SQ5ff04/ppO+HPBpUY5T6gU/r79Qhz///D1Iv90eF7Kd2rJyBeK/bo8JwrRyHfiDOQztW7koxqEFDQKxQKERK4DciS2HsRGDZiUM0m1IUqUKgDUcd4MECrAJIkUxQIadQaA6qOqcUvlOqBEEraARhWEtQhlG6WcSEBhFA2iNSkLVRDWGqg2C+gUQFhrpGwzLQnWngKaTZwIRWSSnucAjVKAALHVWtKI2zYgU3XtIyNu24BK2Ya19GHkJqAFisEAKjapJarW6SrESIOWhq2l2kZLbQO0Wm2UVGdCgO57WnUWkOkeR23OAEwzZe6vmZaYAsq0eA09UQEa1EUXpQkASKCpSWVlEgD07FtUAW8ttQ3QYnYmZQiIIYygzAihDrzuncRSX6+w5Xqh7jSolchrHQcuTH2w53Zcy5gfC0AFXFk7FZvqRRyu0UDNXkVDdFxIggfAel3xt4ZJgElKXFx9IjLQoCOFnYYCE6EafKoF8rf60OyU0/ILgAY0SusmTYgseVi86LmKiCaM4lw2KQirFpMbKQpowOnJgFVXo8RN/VJ9lDLYBbRyivg8oAVIAd05XeCk1lLzO1wdXXuNmRx/6xENEE1rG/0ggPA/DdDdIjkfAqylvMq05j6jvTIPFxdTjoHTmX0eKiYB3VyrG7wFauAVG2uHMOAlruO8GRBgi7JQcgtQgcXHTMWWxgcbky62wZr0wU6mAF5vfcik7DdXCeOScw3gViwtFkGXmkjd7cYMe1ovSU4D4/LWC0a3UZoyg+5x0TPf+81uexeoXkMqkMiihtX6kHh4tQ2Inshih1tfo2L3n4jbQTwVR4a7Ca8oA1J99OuY8gWwfrVapeHOFfHkxVFjxrFgz76Oy9N2OVC3bRyoo9nvLyWBBI1ZYnHiaP2fCoGdfAB50gt/8OejdU3v+9mfH3GvuAeAMBzalte7eHPyaAuZCsXmVpsT1HGq/g1mHgzb8p994/lQXj/eH5QeDk9Pl/eo5f/9A5T+dHm84tt/);lineShape=1;" vertex="1" parent="13">
                    <mxGeometry x="126.34497332679007" y="9.883009452295369" width="4.291455132904008" height="24.76982329061157" as="geometry"/>
                </mxCell>
                <mxCell id="22" value="" style="shape=stencil(lVjZUhsxEPwav05JGp3PhPwHVUBwhQAF5Pr7tOLIWCNvE97sXfVqNEdPa3Z68XJ39XSzC+7l9fnx683P/fXr3U4/7ULYP9zdPO9f8Wunlzu9uH18vvny/Pj94frw/+mqr+y/vj3+6F/4dcC1Krl2VHC/D0+iSo5/n3w+AO73D6eALLnNgCKtEIBKTRMgRWmOALz0dyeA7KTWbUCt4nUGJFFiUo2SZ5NylUQOXWHSDChePNmhwCfzGUoUJTvgdTKAOvY8D/DjiAMAIz3xEo6ofgYgMo0AkgSzQ+KAYANXsygBpCZ+Afxzw3lAFu9mALykBBCkzendnCSSfMnZSCN/PYkDsj/PJjV4iZgUk7g4A7K0TABhlMsRUCSxHZw0bwFsB0UcjEmVBk6zlGYBjQGQ3nkGNBoHDaILoJFDq5M4H9o7J45sEUAbyxYsv0M6dwji16Di1AIYCwQQ3RLqTEzycLuJXKImeUTOAOBp4lcfLZOBn5lbfVhM4sTk3ZkdImPjpR78aGLneUlqsetZP4m2YcFFjlAAGGUuBnBzIM3BiZ/XgzgzXe/m84LVWFK4Ye2xQwdazU509j+KrxL/L0mKwmD+QTTn73vUGWH5YNu5L1JYIdt49aog31dJM1PgiTICtlUMrqH8a6kL/MrsjxLn/IxtEPjW9416QcRJ/kSbP/nI9xv+MfaUPJhyy/9GWICLabzcnP9QLpGcF0pn7uGliSP166TM/i/6Tn2p8U+SQuLrbAN/kyVb62f/QAIUWo9hXq9pMNjG+jzXVyi03sFOpn49FVF+dMWT+nKsi1l7sJ5JKLX+x46Jrjd8jvMyPj+7ntZLdMt6pnsXf9Zxv9joX0Ym4wnjW79o0oACYE0+WOUOwDtN3rSAwCkLMiLNNalo8qyG4RJDoomeATngzA511PV/ii3o4MgAi5wDgNXBKhhB7Owmu2rS3gmYTF5ULwCVKfdFV/czfEi5A1BJ4Na7QfSU3fvtw1kAa/dQJ4Zf8CSw/pdsQwOAXRtxR9NFEXl2MQVlB+sl1mKhyIxblU9FUrIqGfXAKm69KyP2jIVzWNpIpBWHrudNxekwcmui4M0OgV7q+tDEpPdRe25NRcLsVlAxM6mUMbw6AvAJPtlxhio9TY0aB6mcdDeW3rVYuQzyZPKlQb/McQCfs37VdLT7o6CipNHycMkxu7lBxxnLWO+GQt9ab0Yi/CLeZwdzDDzVp/0SPX8fipWErN/SzYWL6us+BjCjBJ4TfTRhbiBcEZ6MJk7STolm6FvMaYdDZJJ2/RCGYPx7AFM66BWML3oYlmbFdDYARjh3omeH/vBw+n0AfrzNwm/39/eHUfrpezs7x6PD3F0v/wA=);lineShape=1;" vertex="1" parent="13">
                    <mxGeometry x="84.39517443094542" y="44.64194072979609" width="41.24919296791934" height="2.8977743611538083" as="geometry"/>
                </mxCell>
                <mxCell id="23" value="" style="shape=stencil(nVjZbhsxDPwavxI6KfE5Tf8jQJzGaBoHjnv9fbk1ZJvUeoL2be3VrHgOR9rku/fnh7ftJoX342H/dftz93h83uRPm5R2r8/bw+6oT5t8v8l3T/vD9sth//318fT77WFZuTx92/9YvvDrhEuZSlhQKfw+/ROp9r9/fD6tf9m92vUiZn2nXMD6SsWuj5kCAjD1bgGdYgSATikbgNpYKwAINQcQigCQI2ULyIU4AIC6WC1AqGcAKNQsoBSqIEqZR5bOgA7zljuFaAA1UmcAEGK2ADUp3QaURGJNqh1GqTCVZACsgQYmqQHOBy6jGlcBnCna4uY+cr8O6CTFAJqaBMLamLLdoWkq221ADyTW6YYT1yt1u0NPlBBAxuszgCkAgGTfcfqJCMIqjbL1QRJMXAyBgnVCeFT8+haaiGYBDcZVqi9X/QQjJ4KvPhEqgGd6piYe0IFJWhvFMdklDuvlJ57Kli0QIFGfnEjA69p8+WmYUFfXSiH7RKB61SYtLnMM6biyr1fNZQXVxGECFJhq1vpnDwjApJanctXkgzxoV+fuAYyatE3VlyGVyTSn1YeKm5SnsBbAfUupWXbVxKGGUICbQbpnAUNLX/uw9uHVOkBpxY7FpbxRHnhIhSsA4pk2Eb4CUB50HtSJBQS1aFlp0YJaVCanOyQBbVEnHjTQAhKnLZqdDwx9+HdAmNg4UgQ9XZpnvt7H7F4HlCHZzoACma+EIXfOADUSaTINogW0BpWrqr5uTVIeEaSldY5aqmxKbUjqJmJbrdwgCSzS2e6wlCNwOhbvtI6YAExSNe+KT1Uf0pUKmHUlgxaNkzxR5SpgZMWpWlUbI/ZWQHBi+kOTogWoWhbkdKRknV4UP/BBac4mOgkUfW1019UZCI1EneqWlLRSEjoCUXTr86isdYcn0Trm3erySR7GUSQ3lqfmlidoTLJDIUDySr6iA1Xw9YnfwzgS3MiUEy8Bnm7jFJqA+3FShFhyxuqHeICHhcth/LI+gVRdXl9FE1Fc9AI1QMLSbLn7iAjPLv9x3/HBen24XK487V5eTncz1+/9ZYz+dbrIyfd/AA==);lineShape=1;" vertex="1" parent="13">
                    <mxGeometry x="72.52619633725283" y="10.327193441340171" width="3.816545381358715" height="27.40468955278748" as="geometry"/>
                </mxCell>
                <mxCell id="24" value="" style="shape=stencil(7VnLbhsxDPwaXwlJ1IvntP2PAHEao2kcOOnr78utq/WK2h0jQIFecnNsTrQUh8PH7vjm5eH2eb8L7uX1dPyy/3G4e33Y8YddCIenh/3p8Kqfdvxxxzf3x9P+8+n47enu/Pfz7WQ5ffp6/D79h59nHFPyEyi4X3+/CFTLn28+ne0fD08L+0ouDPZu295HCmwBLAAg5LMFOHDC5IIMJwQAEIrGZ6YAAJzI1R6gXnkA0BNkAACnY2wuLgAeASqFbAEubwMSU63W6YoAMjjNlAEzsrqYLCCBa82VZDiB8QmxvyWlIwMfsqNsAIEkYkAfOGUXM7wle4InAdRI1Z6ghL8CcD1bfaGIAlfsI2kOFpBACoh9HLynAsg3ndCTr1JF9pV8rwGZfIX21ZCbKroiaT/PDpCAoGmUpX8eDTuyD+STsUeKlLkp3MIe8zpZ+4pYWij0AROYN8Vb0faJUgKASGxYjTOzFJvKF5FdLyMqDUbwuDm1DtA0MHUkUwE+CFvSRU8J5I0USgZQYFnwzlnVVmYh1ZZMtT+i4FKlThivSyIGXletnn0qaGgYcKmmpm9zLvt2cesA1QYDyK3ErwOczeaKFU8BofT05iaa6+wTCn0cposGTuudlP6RRFqKrANUsIymOqwBUwqJPSIDgisTap+kUtuhW1mdYg9IMOeKa2VgBuBapQDuA1E1z0EKlaHeap5DgG9sngEO8ltvKfWR01hGxA1ti/o4aAZBMqVW+xYAj8kUiwWgclhqu5OFD7DndjapLzm1BTA+1Ai1rw4VUfU24UdKhq0Bx0HZ3/sgV2/JqkCliHM0G4C0lNqihgwqgPqGwk2sF49UML3FAPK1FLUAbr3HFiD2ABVXRqrhWvM4A1K76H8EKK3FnqsipoZWFOkDpw0mauu14MT+BJ1uEECcpUZiOISqMLLxIUMu1aElVqcTqopsAzcNXIgaWtkNQIUMN3H2lkL7ZivSptmIGQ9w2apG1ItGAHXajIja/wCntZ8qvWqEBFvpNOwntNXN7xPf+8T35okvGvv/PPFVk8uQpFPhMZxzbWG01fWYAzRvIlJ5aeumRRqgWji2GIx9npqYXrRjaH3QVsfgenVJri29thTS7CZVUtFeb9xYpQxHxHEnpgCHEmHYuukjCThh3OspoABqjJtDBaBKFXkoz0o+4AOLHRsUgMbiy3J0Bqh+Aad5mBDTvAReX/lGqy/JQ2qMW2jlEnJ63HMnLBlDoYoCXRgW9ZM9uKNgWx61RwsW30aQ2R5PAJ68sdeiAmg0jIYRE9vZmT5G2AkPuxhViwDuf7THu5vheVgTCcjX4C9nWMSH++QIR+chXtM+/y18UHukpm99MXTdXj9c3kLdHx4fzy+xlr/bt1b61fmNF3/8DQ==);lineShape=1;" vertex="1" parent="1">
                    <mxGeometry x="329.1317489523343" y="131.31435774121096" width="25.59064194107076" height="10.87427203783187" as="geometry"/>
                </mxCell>
                <mxCell id="25" value="" style="shape=stencil(7Z3Jzh1HcoWfhtuLnId1234PAaKaQsuiQLE9vL0zQdd/f55T90s2vPGiAS1IKk7dqhwiI04M+SH/5c9PP/3x8UMKf3798vlvH//z15+/fvqQ/+VDSr/+/unjl1+/rj99yP/6If/ll89fPv71y+e///7zt7//8dOW3H/698//sZ/wX99w4ZHmBqXw39/+IZbH/uv679++yf/26+/v5OMjNJWPgeRr+l4+P2Z/LZ8eIaj8aCRfhsp3lP/fX38n30A+P0pV+Yrys6h8AfnyKFnlM4xPeUwbzzRey9dHiSofUX40lQ/ztXx7ZHn+GmGU703laX77IxWV77De+qPb+1QYz/GI9j40X+PRkspn2C/zGr138hGePx9V5ONjgnwMj1gU0GkDh2v83gEqAeIjVQXkgoDeFRDpF5ItovAYMGl7zWQF0C7em8oANM1bi0wF0D7bajMogDbOArTvAfMxSZFW1YzzWuqv5GXnT9wIsT1iFflMz2+qKeb1gvfy/dKbl/y4hvhefjxSFPlaUV4073oAzfC8VsxTPsAiXSdl+X7n90eD91/yo4g8bbN1UiaVz/C9S751kSfFvk6+GESe5mvJ1+/fp12b7l5+nRMqT+tzydco8nSw7pN1inyh5xc9udu1Q1/JzyHygZ6/9tf371N5fKo+v6LK2p/XRb7Q/LbrnHjK0/5d01+KyEcyzLqu58r7ZehJVh6d3n+qJVpQX2112UU+w/NzuLbrUz7C/s3xOiCe8rQectIDIOM5nM0SXWcUvU++hu8pH+h7y6UuL/mE63PJy/5KuH9zVcs1XabRK/kZRL7S+7RrOp/yBfThkh9d5MmQzv0a7nfyoB+WvL0/7Zc8dP8mnq9pluilMF7JqyfzGCBfgq6fiI5SWeeLGGU4vyXp98brH+7lsxl9aEiX4uND+nzJT5WPsJ5LNcv+OtDu5c1eCjhfS76p/ID9Xroa9gHtpSUv9uRSePQ+y9zpIl9Zvur74/xOtQcCO7bzUgdP+QTydZnX+j7o2Aa1P5c86J8a1XMLuH6WfNP3R/nk80tEypJv9v4kny8e54flh64ffP+i/kVAJ68uc8HGh8a/3nwv6P/a1H4I6GhXs5cC6vN6s79wvQ2154/yY/wj8lPtE5Zv4TLXfux7l7ztRxr/Fm/mF/Tnkq82nrB+lvy0/Q7rs70d/095JLKyni/hojpfyVedr0DjU3z8D/JFv5fOoyU/dP2jfFVKJFwT+Eq+23iSfFP//Shv5yPKd2WiA/ojS37Y82n9jEfT/Uv+cps378PyxeaL5aetHyJC13Fr7wPfu+RN/6O88RVH+Wb7heTTpQ5+WN70FcobJXgYz+V/2fqB/dvN/wpor/bq81Vg/S/5rvIV9Ftvrt/I/l/yGmng7+3KR0X0x/tQ/y5eC/Befl7q/p3/Re8zNfKU0L9e8sIfpksh3QcCbH+lS8G8khfOOuN4jqj+Ub423Ct5Yawzrp+RlNbP1wS+ku/Kb0zQtyOrfVvQPhlZ7fOC/v6SnypPfMUout4qno9LXvRhxfU86iNlke80/lX3S0N+YDTlb9tF4L2Sl/Xf+H2a2lf9chDv5buu/34R5K/ku/LbFMgbQ/n2cSnsV/LCX43rg+7lTT9M3O8zqD8bWUFPM6B3GAw00Iw6wzv2B1OwAOIi7cAYAZJyFs841yuAGGWRWdwF0FOjPgpM88yXF/IGaGjHLYCsiwVosBFmtlHqGBlagBkVQDHY6dTUwFjGAug3TDQOFkAOj82m0GqtykbvTAyauHqx7W+AhPz1Akx5pYwbbrbrjd8AFU/wBdBXqo9Br9T0CNwxJVoa/TIR3wAds19mV1LlEDWcFmXZYU+ah66rdesl2tNd47A5YKB0DiXOdqiDFNkwS+HNdngFkI/ObOssgHDNC0Bk9gKIM5oLRmMXQPTSM35xD5gWzmmXA/AKIHxMHkiAzKnLewHIglwAYfALU6QLIC5viWhjLIBovsJBhelBuISs8wZIFC5z9kkImvdQChoCd4iKpucdouGCvUeQOXzz4f002xIvLgMdpBvAvHbJS8D3y6MGVvm2PJ6k98sFKDHphEHsvcQlqJ4vWvclQKz0wqpmasJgPSsCiXs3VshD90QdJ+3Xv9dNdfKxNZR6bAG3xFbI389DOyiCccXi3gEoTW8O9fZaunT6y2NL3JnMh3u3fI7CuskIwlav9fvKfJAMgdYuG+elRSMpLAM56W0zybBOnriqPkQPbFlWNad75NW6BvH7b+gJ81K27Sp+X2bLsiiR18vJJZBzrle2jrOGonpD7ngBhIvfbBf9QtLgT++8WpOyVX1cA/2DvlyfrO6jOh0joIM/LfFzRGQMF0DsvpHYBTcDZXDy8DAja2TcomOoRbNpHZiHBUjyShXDTKPrFl0AUsYLIGbcqEyMNQ30rX+hU3Q0G6WOCbjrBeQUHZ25vaq5MIM93jXqcsatgabsmQWQY3cBkF7NN7+Ar5TtFyYTpknNn00J0TckVTN7wdMrRUuR5ZjB5nyDAijJ8bnl3wHIhBtBz4elRzBMMjVsMzlPZ/P0UwF0oHQzfybTXguQ5BsSEjrdUhcXgGZ6ATR3mg/F3pTM3UQYDWu73vgNkHkerDBjM2cU/3jj3d4BaIt2CyDvc5XmoWiEfVNtFLLKqr0XYMAWXQAdpYJB+Z40iWsBSFV2yypYAGITe1RlvABkOvSgeXGTrZk2tYRlW4GUiTDULdt2JqU6DLWMlyVLPlAz2ms2dAeW4axLo6MyblWjP7PzRxsjOtmfXgCxyDYRxgkhOnED6ZaWNAN1u1H0DUkZ0aejdg+Il9H5DkBJ0guQpgLIEliOpC6+gYZuC7aWBmrvnbckG2hyIthQt2xO5ARqV9NhO/2UOtbtUJxIodZm58NErVGr2t6buODsNyFpn9TIPcDcsk2+0C9kzWd+sjWvABJA3QDKUEtq6E4ucdrkUDEAfUPSnLMnp3UPsKSVJ2t2Dwi6495Rf68QVmrGiDLVBf8BhG7riRq/DE1eOQNU4x8A3exEHlnPbz4BmibYngFqiR6+oar/ugGUI3+3S2nTberadilmaVvw8hlneAUINqyYJ5/U91sACmkVYyo2gUmZ9UGJ6X3M0SgZ8bDpRarNmDfWQyPAsFfqaE3nodUuOzpJ5TFd+f7J9WQLIP7rsuIOBSy6+Aqupdy0om8y5boAupY4Jyq7FReR718Ad3gpZrEAam5w2mcuxhhNrvMpmvIwBtJkCyB24ujo1SxANj4HF5+ZrqOhEsjWhWBTQrT4jHIdBVVlzqqMFyDRTFu65ZN/eQUQ7T046rxjzEKIRvTyc1JaYIQrZ/kVQFKCO9u6CyD7YXMXVPSWNMixiWlaS5blvvx+YuOz+Ry9YJ3EDSBhIPwGwP0CHNDY7NsAiewMDCLfADoGam4AFbPVbgAFnZRsx+72NxkgJ9COsB0AEiWMaH5ny6BuEdmWDZBv4Bxn30CV4185qe+3vEGsAk2aZVg7esgbICHqhgk6GyDh3XraomLeV848zUmPrFpOwyquXM2nYdVa9IRU39at8tERHd5s1TTLL6KoSM4aqKnsA22ApJ5MPnat4LSw7Z2z6tbCcfkFEP91AcjQXQDZcQtAjJEfu+WwgbIGCDaAv0Ec3g1gS0AWX5ls81lkZ88DW2TBXglPoKKWcZm8+IqaDpWLxTagKIC4wWzU964vZYBEnGvCwGU2rrxmjIpsJSCAoyUg5HrlFhDZSlwXgGqes3UOWsoYmwQYn7PUPZpwQYmQBaAY3gKIsb5OIHLL0tQNtM44CvqlqZZA5ch/Ghqo2bWasKfTMOMkcq+YrlpjV2vSN3Ql4hrnuqemJELjctRdvWDzQOp+90ORA6VjaHTXL8gvsCVw0xGlokuTLBmhcgZ0GraWON0hTZ3pmnEDpWnfkDBPZe0HHaXIujVYOlxgMzSaIgv40QtQ7dhFYz3qR+9mBWwvaS3T4GYzxmSXt/KXH7RbNz/KulXzSQ+qMuvElXqyNWTHlYMZanUTJXELE6ub2OnGtPiKnkAlcFObajZfOHWd0bxezpRcAPHYS+JRauoD7Qxobmwj+RGl8I5rZvM1tvn8FzobWA6YbDoYYLfjIPOnaRyyHtrhOODQT8kBBY/dG0BjW8MBnVskOeCglwzQIvtAnuJ66ErUdMe1Q5skLzs8uJZN9VLjjp0LII5fS0zQtpvcZPTjmjoc+xto4qwWagGQ56saGt3zwN22FMDtm3JVZbxNOH4l7a8X2bX0glS2KvfEJQPwWrqxWxlQ7BsOr6QM1vGjtWr3MKxmt54mzgGHpWGNM06LrykrfVreTa2Z8wbSxPjzFrX9cFACmtx/UDNVvd2TIrN+dSdVWTX956SM/++AOtgydkDDtMQbQOUYigMKMycOONDYDogcabJMyU0M8tJQAKdhbYDYfJ2J8moOR8U0rA0Qu7VgtX+2BKNyoICrRgcK98fIVSmvwp2sszVQKNwhY3esHPrRyJEV9afXsGJ0oGhPt50jwnFRWXyFq0BvCNqOGdybZJa1NHgtWZhzAZDGtoBFOUTAk56iZZ4iHJITu6x7jA5EC1gcQoTWjLJyW/RsmfT1cKBELQWvXLuSLVNyAajiLQc942rhjr5TbY1NFxGpZi1ENyFFpJpXHjbmyIYNa8eoZeqaiVAHRvG9gf8CEF10A+C0xDTUbq2TOTLrfFkHnqLJWpE8mwG+mjjtJX3QGlZ+XLnb9u4JYM4rmtLBogOVTbioiqxWDuBFC9UWjpYlC0JmTkdK1vInnSLgGm5OJ2LwhtxkFu6fUct/Ri1fAf7/RS01hsJNhfc8+Dl9SDyTrlkHdyCrt1u5SilnMx04hrKXtx+7h/3gcSB+JdlASxkflIBq737K59PLAw5JjNZVaddp8DeIbt09CA6KzEKESJ9mTXLfDjjb3smIEIwOWIrhKWnLAYe0MAccEs8ccEhtc8Ahec4Ap/Q8BxwSALO6AzvF8ACQYvkD62DJQp3tVl+tvZ+yT2VP77pW1nyiyAa3h7vJ0Y1YEuTO6zjQdtbxcPDdaNsBt6ReJEKKZdBWDuAZifBsU/gKcFOZzr8gjO4pfdsifmNykkqzGqLApQBNHfB5mGmvRzvk3XcrjclMF1kPsFlYL1kHmVn4lawLzi57pbU0rWS0spqxhsizoXtcvBK38ZUW0UqUuCFMsUyEyU00d6w4KoB6o5RkZeAda66LWTO7TpYqjqxdyy6+YYDYfJMzpIrdnDS5XeJNIdeh4shLxQaeDzfFaEeAlrsdAF5QdwRoyd7ho70o8AjwiSOAlzZuANdCer0y/oLXZ/Io3VSADtQaNzWm3JDxpoqV+7Dd1MlyCfVNJS6ntlW7GmBy50C/e+MM8Bo/rCb2gv/BBc79Rs2QMl4AbU8x0EOp1lRyDr4qdWrTs0OHgGod9yYbJ8tFUr3EiTbN90NHkrlZBu3uo0CNF+zuzdmRCGlWNbUB1DzCunMdzrhmNMVuHkGvVKwLTsdQ7fLa3BKgPd28XUvjUepqrE9u792s79SsuB+WXyiFK5OTSZsXyR5anbi6L+ix96gE7cyoZhZAC645XbW79s6YNtyzkv3LlCZlvAB6sCc0TpZvK33fZ8KLFxdAD/aE/NLufieAiM7rvhoiKYCaR/jdEJPLe3qzljNc6LtvhygKwJ5Nw5QAF0wsgFqVgS+UGNb6h/24Pu3Y5Zz1bufD4PYAI2jy3OBGJMOuY99Nz+gX4k11M3nswzyUwcfusEzmBSC3bGQ94w4u/mYxogKwgV5Rf3o30AMlMCzPeDRuPldVL+2mfYfbHOQX+DrYYb3Nd4U2LQ3rPL4rtKkfnu24wSTCsLKS3e6Rr3RQyosz1cbUmtfBamZMzdcY3E9gWnnP4BjKsz/BDxKD0xqGdb7IYtpFSUt5Yrt1uympN26anDSc0Dlv5tnM7h2jiz1frRitc6e3aeVuPWMazL6kQTrjJtxx23axzrh4hUJR/6Ef7lywG3Tb4VaHajGUw0UT1qCm8aUu0/MqK/KtfudCO8y0WQItY1x0dl0ah9zQ7cBY6jPx3rNbBu2hr3m/KdkjCnh2S46Y3Ph5qDtQuTXcNLqocj+8aeZPbXyVhfFLtfBtM97XnMMJz75ub4DEG2hahlTk1TptlDjxzJu5n3vkK+DYhV/cgXOff/mGcug6fgc4tLxXAOeRbYBln+JqtT7Om3bmX5CZPuSGbkBSALkDu4mVvFJAf3oOZUPzPG0gvbSEmfUnLf4GaDxKpgQy109Pu9N5AfAOEmMd8mGmu7IO+TDTXVmHnY/KbfvFqszs7T47d70DoAlnN53lwAZWU1WZuAnbszfYG4DbbvpNAqmzMm460+lgJFoa/S7BZuNEbO9UT3cV6JVT5Xj1gFx1lNEBn9ZpK3ENxw5qyu1Lka+cymrd71s+6RuyeuzxsDTsWu54uBDKerXEw71C5oDHjqTatHzveDiBkuZKRw77L5dG9kMsSIRMYxIXgFzL5ZaJ/xAza+9g35CQlR5TF1/knggLoL/Axco7UcFuGKQKi+2xC7l5uqpAKQGsqR3W1WGcOIqmz8f7IppdMIGVbn6vQcdcwX2tgV5pSfbnKHoaduYzipUb8vhkq77F7OKRLdue7xvwPlCoT3f+kLgxeIYMC7ZWnq9oeb9oOw/LtyjM6wWNUh6ujLXLDwqmv/rdB4fu80PHn13hJS9GbUY6bF9LIAcmqt3elC44XHtg9bYJjcFnq8GnPPUD6pYuFrEpRi92CmANj1/pHZHA9CvD+SJEv5L8IG9M3lE+6figvF3ZfpSX+eXx8Svnj/JqSJzkwz/0PkPPl4N81zpNHp9mN4Yx0dSs8jpi1U5r6lcf5Ktao0d5X/8kbzd+xFNgvtj3HgL5un6oKKNl1SdHeb13F7vyNGuWygxws8tBuDlAe+s3+06e1k/U8zSiO9P8Rmnk+Vvw8SeKvNoVphHPx92BS+eLYrrPKrgflO9m1LN8U1r28P5NM+Z4PD0riufL064iZgbsvC7VD7R+anb9T+uzuu+Jmf813Xwv59ZFnV+UN/vw8D5R+2Afnh80FzyiPbPk/fmUUDz9+RQaL9OfTx5kGRqG5utWl3zU8aT0zJ3EqvqN/IudJavfS7k0Ow1X9QM1YiiWhsINi3cTBV1vh9Tmqe+Pzy/6vdyJpVjpZUK2qZj9mXD9l6gF4dyGZTdHE96S5zeovjr0b7PgSOaKLiukzmg/5KEMCt8Vnc0/yqcLEZQI5tbPTSkgvqXcWyplHk+77bVwx5libdhOPfinyh8qg81fxno6r7fG/Kgcrbz01AWiKl+BLdOD3SaN/EwOFqVF/ZbsKiu+dy0Na9fG7T/tDhHu47fkZX+1U3OGqO9DycXJm8FhWuH+PCn55HYUps/5XoxU1d7ge1FT8edj39yi79+5IWz251M6R8oauRqYCLrVdxJ57KWR7PJb9H/38anvg+shWnoWrwfzd/j6jBQstRbt4Wj+C9/KFr3EBpOUlrz6UwEXaHxbj+8A+AVuMXFOarTOgzvIwIBoYQwyamJREjFyT71o14JGNuujVcLGyB9t1e0LQIGA6DE0tkSj3Z0ROd1gPU/nge/KjlHPysgNiqIZczFh6speahbhIvNjamg/ZkwYtUyXyJ0YhsUlM27PodGhyOZZt2v02Dzrtk4zX5tqbAeXtTctXY7cXaDaNihYR2kd3CKHP9z7YfOvGJtVuFzW4p2FmyNY6Lyw+W1sSsELK5NaQ0ue2phZe6HI1xtEY6cqtlSy6NaWh+8Ntj4rukvB2KyjvEXxab2Fm/cn+itczss7eXIPg+af7/GH/eIR/ILmlvXMigWPyrvnUz6Lvz/vLx+fguEGH39uZOPzW9Bc9PVTMIXiLL/+8MdPXz99+8svv/72259fv3z+28f3//+Xz18+/vXL57///vPbP/356ac/Pq6//Q8=);lineShape=1;" vertex="1" parent="1">
                    <mxGeometry x="384.5786990273318" y="96.99045373778961" width="140.34780092900004" height="77.86589791389507" as="geometry"/>
                </mxCell>
                <mxCell id="26" value="" style="shape=stencil(nVzJkh23EfwaXjuwF3CW5f9QhCiTYZpUUPT29054As2HrPcStG/UaHK6AdSSlVXod/mnPz788vv7dyn88e3rl7++/+fHX799eJf/9C6lj58/vP/68Rv+9S7//C7/9NuXr+//8vXL3z//+vbfv/8yf3P+629f/jH/wr/ecGZXbROVwr/ffpLCFcZ/f/LnN8Cnj593QMk7IF3pAOg7IF9VAyo9oVy9SYCFHdCuoAEj7QDTa+hXpF3qV0sSUOiVxjWCBLS6AXJcz3wFGPsTcrqKeqVxRXpCvppJQB47oFwjS0CNO6BdqWqA7YD77F8BbD+43C/TgLHbUsZPxLb2wLtU4pXEwQGQd/MuOAexaADavkslL/t9BehlB+Ac1BPiFeiVcA5RAjK9EpxW7VLkIFC6XkO8+g6oQfpDT1fezbvmKwrzBqDv1lrrFYV5d+z6ftLVZOTr5Sr7LtUhXbQXNr4GnxbW2uuKQjcgX0k9oV55X0Orywd/FGBrG34UAAfqEkCBzNIyx+eAxtZqRQZjAOruD4afKNMw3lYET7lLtoL7DRhXU2vo7A8weOkPY6XAG5BXIn4KGGGlwBtQ5SuN6AAmX2nAgXbzxkuq/DDgkPvBzZcU5g1A37cVz1RBYJS1xBtQ9BOwJ3vUGO0ytYbG5zBsbcOrJ5Dx4U8UtYbKcWnouIS/F/dzGDpPA0DmjbOX24o33teAkx5F75KzpSFcFAByoH6v6iWAHKisl/zRJ6SVJl8CyLyjDDPeNBAEuggzfpe+s8CXgH3RIKbhYK27eVu9TK+huNiqQuUEUPTWGcjbkkVJEieAFh105HMAZKCDAzHAjrtEgLao748C6hUOHkeAvMzxFYDoT0OVpcI9/IsAQbso4tJuGmAzikrP2LqfdIV5q3OoXAOBYGW1aPAlIlgI9+oJyA/E+bI278I+XTU5mYDdp8FbZTAuqwi7mTHKKLWtIDvE7k0vOjOrBLtXhR8AlUqaokNlXiz1oULJapcS52kUTarKAiDRLoX1kq/YDJH1fJezrwCUFFFa2oFg7a+E4lXVQACU3TRyleweABIRcpahElmZqANK/KaY8eAsmqPMogAkKsCDLjj61fdzSOMKag19OeSD1GLCWgEgf0hN19O3u9yAKlWHbnxw6XAOyMq0BpyD2iXHBFKUTKDf9fmjCqeK18pBIHaZ475XCzfAtGlUZgJRi2q+UoxF5rgJ2Bcds8xxszymNUSZ454AwkpiPwgYp/qbK8uVVV/9ftyNu2lnKJeRMCNTLopIKvqSLH9AgQdpszLQ97A8644Xsgi1m6l9f38pOXbWAqqk3Cj8jcikFOtAl0nd61L9APklwg0DUo4M8kvqR7xT3VMAuGwlEy2S3TZzXtPkmpuzOYQKRcPANDnGB0kwwDRZsE9SXwFx5HCn7aKizHFJQTkaeGCmpDCkuAdaR3QYqTOLRZfuxO4stWuwNMoi4AvKOUG6uCWgq26QLva2IEvc3FfZ/6BdVxEfQYmMiF6RolK+z/WBrCqPBsMhhR8brchqDk+UZUWSkuuDoAbIIsgn14+CdQ1xcLP75KRoRSVh/SQq1bY6VM8BmX0aLqWqDPAP6nih2msi8sHliXC3ID0uDhZkEEcUX0AUKl7sFrYEwpL35NbKlYVpRMeqEAtVIIt1ka4HIUBxTxAWys8IzxKQ1hvfgC6NDwyHogYyhhQCWOYylB2qtblM+UG/CWIFbRGih99XUSw7USxJmSE++32RS8ISXh7Wq4hwZIaH/SwqRnITFAcm8zMrDDChKn4fhIIbLEW2x6eREkBrGNOVXd9KBovmZJUmHQ1Be5BKkmVnbBbvJA0FaXXFSUPFZLFdXbGNP6GobXXNuqKFTERcWvRsLSualFYD8wZ06cowBAqpyL9DMbfGSs+kGMqZu3ulIlUSOAvxqpz1bEbk1DbHFBSDvkvrByIWFaCs+PbADVV7HABi0OnuPrwCVPcE5Q8oM4J7gmpeA8AMukqqZ65pOgGqsnL9kvOMDD/hMMxhrHwm3ZYFoLmxHdXdewIwGYufzCqZDPZmzNySbo/PbS0MUK00czo9SlAloJlrOE6AtqXgFi1Hj8qTbZVVvXcgk/2SJy6qG11zAoBK0KbnfIobMrtbLq8ArJS01c5+ta3ZvdLh4GhA6+yixT9BnXTj8u20Blsl7eMuaRdlIVMLVuYmJ+ZJ6zDzPwIqCyZZ9xoss3aQde/N3DTUnHsTPt2Gax1o2Qppl8LMLKxVnr6zwYMU0BUg86xS1k1TVHeJ6E+QdTcoIQN0A75GrvdKXU3OV4IJd8a61HDwxmUnJ3imctFceHavavEtdVZYqkk2M2djqWYNukBsLGfMqlgVuYl9GsaiTKPzmM+0RqUfMpGGuSt9JfPfhz8pDT1xzY0CTjVXCtvdYSDNXE2vR0Y70xiU9F010nk6s2n6OQ+MXqhKPTZmZgAn3cN1DWBDEuBS1Zw2UADjGaU52SgiXrzlqYcaVBHc6HRx1FsqpqLKpWQI16zaNTlaNBleYHmBqtwipQnk++aEQ7Wtk0aRNBklE5taJi1a19E5sniAmKpYPXIllTIzLItzmE3w3X9QeKv6DZmMetCz8FZqw3Al5dARI/Ea8r3Rr9QGnnyvcnxtitpUeCcZNMrgKJaD1GOnIVBDo0uCC9vkMkD3iaqb5JptcdUy6SzVp3h1lUnCCowLEHUqQdiiYgmBpyrFpHKyQmhTqg9iO82wItqqtg+SB+mlMUoW8326bQGGLkwSC76mW6ZeoDzJJSRmHFqylVusWQrWsyVLtZ7cUOtsp1HGl3m5YXfmIOlLzyzThfUHnv++mxONK8Y+/33jFnrW4+7d9Xp0y915WZMu0DvzkcNIgpvoOYw8dC6c50yFngDqzmNUHTwBzieTfgI1t6Kecu3D2VyVypOfk5oMSE9i0dhTPFw5GNxZRWw0NaQXnFQV9BB3cEJSkreCRuTWSjpMV0aXQfTFvXlHgTJI06O9yYmSuv4ajmzPi3sawOFrSP+Zw5KkiEdpGsMF7KmI62sT3AbIcoppuCkgFLryUkNxk4la2xqFg2Q2mRWG66zOi3saUJ0eoVpKw0kkoJGq8eZH3UuWchsAVCWVwzC9a1iDJ8oJUWOpqhzu7BgnNxBLaXyu4VN19B5e8dAzdwBQqJxFjwbQIA2oqzRvN7VStWQ4/MSHLnqG63LVoU/aXWSd0xLK44Ybr0javN0s8OkGgQcc7ih4wOEWhAcc7lkMTuynmxwOcLor4gGH2yiDQ+XpvouTe043aobTww53dhwTON0KcrZ0unc03NTk4WbTYEHpdHdq8ATB6XaWBxzuf3mAbrGOwbH1dIdtsBLb9dXxMTguDS1kxOCGV5C6D7bBj6hy6HC4qaxhOskNd/uwH6/JEZcOuiLDGmksCw89EFFzi5DGEZYO8bBNcm568HgJXlJxslkQuLNOhxvCZK9DalDdtd66brL2xorpHOE/DLvv29qzfoKTDuDV6XDFnlwo6OLYqY2m2+k98R0zRFd5RSayByHgHz51QJUcUopqss6PKVCW67IKmgA3dShvKUQW01vRV2SiG4Q8fqPCXNtKlq+BL0JUXWf5T3/UJg8OOc0IUOQrmW85aGv1X4WpOpCZuWtvmq6buZJDz5cCQC5aqr7gYJxRUNQc5lFoW0vSwx9uxqxELWg2Hnk9VHJzRIbE9C5L8DkMRZ/CMVn6zdEM0uyaDMZ+liNXvQZ33Wre9dM3U6gbNe/66VeiznKOUkg0Nzeag2xqzBEZmkfpsqiZg0Q0LWIy7U7q7CbA5ACL+wTL6dNQ5cldP/nxqcLV6OnzVsUpTIcPaLkbwnGc1kBMYLZNlE8X9mkAZJip3NkEQDY13NXuqHWHWfM4eVNJIebGDs4A5qGHV2pOZj4s2p680iF6Z/cEeXDmVOODafwfX287AfCP7x+L++3jp09v35p7/P/8cTn86O3DdPnn/wA=);lineShape=1;" vertex="1" parent="1">
                    <mxGeometry x="426.15045415469785" y="129.79451083487274" width="9.704021753567224" height="16.100312330391382" as="geometry"/>
                </mxCell>
                <mxCell id="27" value="remember this diagram&lt;br&gt;and say vnp&lt;br&gt;visited but not parent&lt;br&gt;&lt;br&gt;&lt;br&gt;&lt;br&gt;jese dekho node x is visited but its&amp;nbsp;&lt;br&gt;not the parent of y" style="text;html=1;align=center;verticalAlign=middle;resizable=0;points=[];autosize=1;strokeColor=none;fillColor=none;" vertex="1" parent="1">
                    <mxGeometry x="540" y="44.86" width="210" height="130" as="geometry"/>
                </mxCell>
                <mxCell id="28" value="" style="shape=stencil(7ZzJkt22FYafprcszMPacd7DVZYjVRTLJSvT2+cgHbIv/3P5Ub3Lwju5jf8SwJknvOQffv/4028fXlL4/dvXL3/98M9PP3/7+JL/9JLSp18/fvj66Zv96yX/+JJ/+OXL1w9/+frl77/+/Prfv/20Vq5//e3LP9Yv/OsVF7YYFiiFf7/+Ic+t5f/+5c+v6z9/+vVhfXTrx5bH9fq0lXpe37fUrtfn/evH+rYVWF+3KOvr/sWn69s203l92TKsH259xv3HsM1+BqQtwQVF+715BsQtRwDUbcQzIPAXjELlBEhzy0BjY4p23pJdQyEip22MM6BvnQBlm00BKQCgbUO21LZGXxhbzwpIcOh1iWdKG2/9j/bPAXErWQGdvpC26r5QSRbyVrsCiA7Gy7U4AG3J/rcD5AmAtuXgAHSGvsXoALSl7njp5gtja++7pak6yQCk84qxhrulWQAQtyCUbkgHAwy5VpMHUALFeEmYb6AAlbxz/4MSqLSl7DRfRM1XjPlEL2XkpVL1ljKLaKnOmMxdpK4Acq12qkC31LZwZj77S6MvNNXeNex/uQKU86Fr3hn+EnBm78oWdAHOW2oBTbQB6vmWWtq17fcCDn3+vQDT52B1nwBMykkeHKDbofu7AGl3JS6v9WyyetkCb6nIF4y7SGu03YwfgHFHaXHGRkCDsuThzBojsSKrqltH3XXhpYjKlvqdiIbztY6JVtTUTD8rgRnREzBAPh96ZlbGRfXSvGHvvPXzoWfbXa4rgNzS7LupvwJE2dJgvZTU/Zlzd+quAEJpAwxSlWaBpgImA4oH0LUmJVwMgdV3Ugn6DkR0x55EibQFD6AvxG26Yw/SGwZwpOv8heG+gNwU1cUywJ174r6AVu7ZGSLTOolU950hrwB6rZX1t5fquHPwlWaSLZkqizd2VJQlh36la6zY+xbILE5nUuLWQdGYM9LPPpkZXgQYpc+urvkClQBOb9S5hwjPAVmd6Wq+AFDaAE08psNmXAHm+ZbWT4DE1aIybaeiCMIAojXs3gqdobhDB5Q4A+Qz4Yz2GRR+dVaujN1mXAHEnzH+JUfUAFV8Y/MOiNJFbZDJYOJbEr20pJzOYIwgX4hoFmtVOlhsR3qpVg3yLdzsxEtVzaIFtJTOqS5GsaB88JY0w1SY+Zpya87MGk15yUK/zl8QJZA5CqouDbcSbaRmTPVK/qezTHf1Nlb+h87QXQhemA5DrzVlpvTYquQdIhp2A4gVjeZr0BcOHXEAxh7QXgHEPsSGhLNQMpzPEJn5DCDxbkzorhtA/Pu3lOpzgEu2mJWES7L16XzmjkrG1uezojRuB76w9ZKlqOiN2XrJm5SdTy7Xi7ChJKz1klBDF8DvP2IGfq2XDN/uml2tF1EuGBYbQ0y9z0j3EzQaa5iGWhx6/v2+c+DVerEh5try/sN5vTE0pRvrVE1kIkN5MQPUM4fGzKprKktHTpnW44gHoO/e8aXqEiaaGIgZoAuXBgyTljYVgPE162s59FLwdK1ewZt7TlZt7Amhxxzrjc2RhGZC3WWAfqaDOQuUXjFAky8MvtauvPQWIl8CxAerqL8WQPTdwDzAAogCSGzVDtfgABT2I/tukh5yrBjEdDVSJiF33sWZl0wtYNQz1LW1QIwqAgaQcLXlOxGVOmIrmD1cakZiQ6a0HbG66PPGtElCs3WkdIsqD+1g+OeApMaqDdStdolhKoAEyACiyNpk+1M0wd84o2S3ns5b6oEttAsADDDpWrsGxD3ubtxzgNN8/UgkPAcc1uAx/Q63ZDvWLyQ8tG0gDgVQ5NZdq4L9hejQs5bJO3s+3VW97SfI9eltL5U+AujQfY/THrcEaqbPvcLwABhA6RGUvQ1AEjfS7q09Eg7oMLJGn4s14JZGUYe4R0xdj6pNJjfsPdruHT0KENBhHN0MDwDyBMZQp9gkhDooxlSvcokU0cF+L6kio7r6dH5x62gfpgsETPE0INxMKtMGoJLadFUN04Vkp2dW56QdVerngKLhqulzCldnVRFdxVM6dFOJaxG1xuza4rTMJJislZsX52TwF6ZK3ALQtTpPYDkTdEtTVeX6AtFh7lrowcFC1piaUVoxC8jDAkwFUGPKQynpAUHO91t96wFAJmideijg5l67MBPXuxYhkgOAYlqVIee43gCy/wLfUnLXesMb0lK0rpVJHRwdUJNNVxCY2E2wtuS5jwmX3BkCC3V2IjcZUJzI3cmoF2pWG+IKrC3xLQ0ncpG5dTo6UJj1XEbJTVyfcCJH/sw8mPNRRpm/hwOQ8/B+gAtfzQYhMzUX+iVmpqra1cwi5U4MIHliM7ydbqlo+2WrWJ5dTRyi+trezHjpPIgm43ruTM7wdpagqLWfxs3R5mJJpq/dCETQXLcBqJFquMRdD+gAjaGabAVS5Lm6QosBqGJszrTkTpa7TmdwDc8WEJAWsICgOwCVBS3k8M1g6N8nzQH3jH1RFjYNBygUKzoz2tkRtdBPbymjI/o0uKRDr/DVnQGDy6zJx7svpF1cHgFAOOOc4CJqzM7MJ3Qg1jAJ7u4L5AqYjpDyw4rZKcPU3smtphh1SwkVmane4dpGsISVHaUj6iUD+AwTKYHmmsEa27jmOqQbu2RvQdKDMqaIugVnUAampKqLURp38fny7Eq0cVFE7fTRVHqZNXYpWiLcSmTLoXkepnYdYmiZB3T6/nsPvgbFWau9Wc5wVACvAN75vsneyy2tTdKWmvNDC7crNOckJi4dNdf6MvjQbiBmlV1utnS+pcJptXVL0s/PArTo4DpZyMbVrkFQTpiSWmSSEt7cLfclt8rUQ8c0wpIHKeGx31q762ThfOiqKsoXAncUjd3Z2QGR4zIDFFesxX6fofnQWFkJGCNIZ27G7uK3BNQBSNzDNzVrHAM3OU0titw0FLkhoH5XARdfpt111khpt2BOeiVJzqydsf91dSFIMxF3gTjrFrF5z7fhBN5/1PvhRJQvxN38ftJaYmR/wa1Pd7+vs0XcJZM0H1O4rSlpfFtR6pvrM2+YZVj+kTQfY5rO02tiuL26oKS1nuPC1ZYlEsxTRc1NncZyJwLaxdIwtq0u17NGY8l8TG0kWPPSrFVUKplN3xLtByDvfS1XAD8TStUAbz4SF+GXRXPDvGhvXMSzOqK4GUJlLdx1sUh1LHPNxDtsaxaRPTxJDuXCTVrN9fnydFd142C5s+Pc1A9erTvchavDiwHHkFYnsXTiRPbwXOS55ikZIOWGUrDSWqtWWs2txYGFqkqgNExKrBZw52kn3pL2K/K0zOpKl5Qyj+VV1xdQIxZOV2e9JNITdxK7wfA1dUqH9gMLlRucjo7Dh5gKI0/37sFNUaYmF58nbmWLaqLbjfMftOeqJyxdlaH2oXMgWbpOYY90N7EpLeCD/dTihi5mxBTaGl4UR6Cip11cR9TsqIz/mEX8bsQfs4jp/2IWUVzdObCTsiRNGphEkLJcIiQy1zA99GRgmNMSS6qFNTJaOdMbOmEceXC7aJZhTPRcl2aSCKVjMnONhssXKnrfa2JTZskTPzNQtblhBNau1VU0Br/T4XP13OK0RvTPdFglEN6SBH53Dxl4wM1TCVVN+91jDB7QcB7hCaCw5quaXbl7sqK6udZw9ziJNiB1HuZ1lK5cuyrON64Bs5+LW8Vdb5hDMICkGgsP/i0RlZBj3r2tkFwURM9vLb0kaS7Os6wdC4BjlGXa/SwiHdq/vTNZGUfNTaYb+xDcs0wdK3zZNbOljqWoPJ8E+eQJWCipifGGBmU9y5QUQIb9ycNPDasB62kpD6CHn9xzQIk7QHLR2ZbUMBo13mzhXQDniCaWh+yG/26yM8bM2dGB3ksx3hRVuUogBOgaBa3UOFA6Va37rNwjPeaW1bCngby0csOu7oN9YEOrlHZvpPlic8WuiAWKmDWCyFzhi27sMXMv/9T5hVwwGPXFtJvSr/pv6/UtUhnaE5D5ibKkCiNzmOiap0yp0XmDxt6Fn0EMOkW2smMgaUHtiK0ndzVo1FAC6oqgpnOth/sMSt/Cz3oF7fwqAV+QCE+yh9TS5JIl6ykFvM/g9k8JU9fJuawi6C3XGpe5L9NNsueJFvC9L6Xer7d/vD3L+sunz59fX3V9/P/6jKv96fUJ2PzjfwA=);lineShape=1;" vertex="1" parent="1">
                    <mxGeometry x="444.73813552383956" y="103.20968838397239" width="9.819860690588712" height="7.686447949246784" as="geometry"/>
                </mxCell>
                <mxCell id="30" value="" style="shape=stencil(lVvbjhU3EPyafbXcvvuZkP9AYgmrEBYt5Pb3KWflYVyeKcTbcnAf232t6vZ5iG++fnz35fEh+K/fXp5/f/z76f23jw/xl4cQnj5/fHx5+oa/HuLbh/jmw/PL428vz39+fv/67y/vxsrx1x/Pf41v+OdVLrrQhlDw/75+YOZK+v+TX1/Xf3r6fFqfXK/r+jg/uVxfXOzr+uxqvF9fXcrr+uJqv1/fXCnr+ubM36/vrvt1fZ8nvFwPdVhcBIJ3qQiBwDcO5rI4kUGlqwmGUYSKrLq63hlWyfleACcudKTsgrg0vs8HFqjCyjBbbizQxaWjOb8dqQQhEF1rfOkuHDUWZ5uAV0dqztsqEFwTdojdJXINc0nskOBLiZ2viB1SmLF4CFQdnYkvjXBT7g2BTvGGrxCWTkf4HgLBdRMCyAAkYNLSqTpPd/D6SNW1NR6QFEQ4pOO/5/o6nfF6feeclGVAZ+/8miORIkXGwPpCfiQzTIYbkc1cEE6RM8eal4GQqwsU/fr7q+vr+dPMmdfrN/0XGcm5T385OUQRCiqeMyqcugkfLYETJAIzCx8tydW1jIwULO5QimtrJKMSNVU3u7P1SDHLqlCPKnNYwbsqLl3hlataEapexE0tM7sdcQBPFHaojQtVLi4Iz2vGkQNTNnGkFjlXlDz1di0AR1jvMBQtDNdw6bUqVF0VGrLRqlboTWmp9RmNh0CX+ah7vjT0VpoQMC7n0FsTR4JApR2yDKAeOEVCDVntENnSUINKGhDIawBBDVldOnJWwq268KWeGArjKxRKgkAiASSBHwisWup5uuPtpekOVaLtYenVW3uXgAHuXQnPe10d2n6JLg3RjupxCDSZ79tWPyFgIhvXytgQavJKIPOtYYiqMlmcqfRk6ijuMLLxmr4RIsrU5Sg4J3c1odYCprTu0A6cci2Q2V0Ro0UdKXJFQRZQFaUYw1XkmSrugMreCbmZhG6ADpyN+7zVHTYhrARnCWqHPNHsIQD4pNBYmvz0VCAknIkMVysKtTpSnPXjqFlt5oVrgcBsrBwg/E6A0gYAThQBhMKfqVCHSYbuBALVXT8h1C3IXX0JzqLQydhhzZWwvYTp5uJ6B6AT0ztQCYLtFckdal1dIx9A806AuivgBjKAEkMBkJuqnA8nXo8E9qTY2NDJeiSgRKnWyh0ZUEbpGp3TPUip4qzDc4hvRAn6yoYSwcQV/kGqJNdIGmyUjYLGPtHEdX3wjKVjnZa5FggMZ2KRlb1u6X4QCCXQZp47BKKkKKjThXYIkpe1jWZFk4AJWIMsHb3MfIAzhXhZl62x1ibVPgTATjXCYuZXpaV7YZoVUFCEHYBd+EhJ2qFvhgtJw8qtaToEFDSGM9t2B8UHOiOB0XFUfKBfaCmLS59g6rnlKDIZtmjUcgQbVXrtW1OzyDP1vvWKi6ZNjcvoaIUoQ1QGTENAeV91cRNoiqOU6QknAVWoIcDuWmS+h0DYdpAt+8IEYnSjlZZwgM2ZkrLDxoIgoBgH1BpIIGnnq5tadUuq74kpzcbCnfP5tB1J5ZmNcYxL6xjlO2TZqBxBvTX5ZWLq3I0OuncCAc7GRfIBCMRNQAGmnxeIzAdQgmSu9JxmUORUoUbNoh5WNLkDqiLxYwh0VUYP3zxVdtXCHpV99aWYJGsCdtjbm4rugrYRAwf+UZUd+CfQkZrUEhBWJQFNqIHh4nqkpNE6aBuVrBRkpw84lLrGQLoqkQHpUo0Dli66801NL6B11d7cm/EgEGqgCz5AvpQ0JAPjoHEIiFfS842y7vCdMd+RIIoHfIUJLUGAQhSHlPw4cdbIutcyiBxRxa7bDpFzK2iRmkBgB+LHw/bKDsdQ+dQUUN465kwkULRaM1saEaKw9BgfUK/Fy3gY7Z+tOaMGO7ltOyRtuA0k1qKTgJ/xdQi06Y53Icq9da+fXCSGoUjPClXCTDwfSPLRBcxka8QN4qVyq+e5NIpYVA3XwCCxdXlpmClSW9okOKmFsXfXg2yYKa+IrOtROcxE/dOeZcTBTHG1A4CpHE5lnjUNvK8K+/E45iSgLL3PmiAgEdk2ex2tdYX5bDtSdFnjJXrCA8Mp6NC3PkX3ssZ1z13m1iWlaXsfu+ohIb6Pxl9lKvoW81EAJdmshICnJGAawh1D+FNrPSr3zjzdHQNidaQtRGuUMz/EQ12PVLpEAm0bfwFBKV+qfRMw2UrEFcuGBFRHqu5IQD8Hq8b8Ybyg0S8FKGskk9MvpHvqMgN7K0RWEje+o9ezqcDIeJBX/WKDRhzWJ/S9rdM0t8z60UnZnlJ5/Sonb976I8hHE44kh/Kj10+PVGSRztszQZOuPSAo2UAPKyL3QJJu20ceDBSNDjcYU/UsxGaP58jasluH9dQFhYFVwyRvWd7CpIyXAuAtFJkWZWlLnQGx6bZp2tCnFfkEAdyLItOqzMGp8MsOaxK5gQ7SADV4iRjAUClugp4KIFuxQJIYHTy+bl0i1VFHeuOpQJ0N7WsB2x6bNvkoAr7JT3Kb9KVQtyO1WSiuBSIzmXEk9XC5cz4ab6uFlqxe9GVVhhzeT5fOkoKO+NpezSnXsG3SBzXI6cy84dn3FGDYlGqymhcewoWjB3SdY7ilhGhTLCZxJ2O89xXhHJlAm25/Br6vpXnCy/V7WQ7z1cnNegKdw+TCwNsMB+sVdNleBplJsu2552EmJzieZ6ZmEnt57sRivQp7255nm5wzbK+IsF7RhLDp02SSCDyFNpOsInDEj/sK/cStJutW3s/+GuXH6/HH95++fHj69On1lzPn/+efyuCj15/ZxLf/AQ==);lineShape=1;" vertex="1" parent="1">
                    <mxGeometry x="447.335735926588" y="161.25171656067866" width="4.174505951426677" height="7.243557838216599" as="geometry"/>
                </mxCell>
            </root>
        </mxGraphModel>
    </diagram>
</mxfile>